# Blender v2.92.0 OBJ File: 'uploads_files_2422660_Construction+1.1.blend'
# www.blender.org
mtllib fork.mtl
o Plane.003_Plane.004
v -2.001133 -0.188779 -0.187151
v -2.022066 -0.189886 -0.199153
v -2.018991 0.250730 -0.187155
v -2.001133 0.241972 -0.175153
v -1.595328 0.166833 -0.187151
v -1.575207 0.162960 -0.199153
v -1.529561 0.260970 -0.187155
v -1.554450 0.254605 -0.175153
v -1.900989 0.026326 -0.187151
v -1.900989 0.026326 -0.199153
v -1.882822 0.304419 -0.187155
v -1.877928 0.291289 -0.175153
v -1.607385 0.289425 -0.187155
v -1.613685 0.276544 -0.175153
v -1.645743 0.138653 -0.187151
v -1.645743 0.138653 -0.199153
v -2.001133 -0.188779 0.016900
v -2.022066 -0.189886 0.016900
v -2.001133 0.241972 0.016900
v -2.018991 0.250730 0.016900
v -1.595328 0.166833 0.016900
v -1.575207 0.162960 0.016900
v -1.554450 0.254605 0.016900
v -1.529561 0.260970 0.016900
v -1.877929 0.291288 0.016900
v -1.883087 0.305129 0.016900
v -1.613685 0.276544 0.016900
v -1.607232 0.289737 0.016900
v -1.574111 0.166965 -0.186946
v -1.575322 0.180445 -0.186946
v -2.037041 0.149778 -0.186946
v -2.038252 0.163258 -0.186946
v -1.574111 0.166965 0.021215
v -1.575322 0.180445 0.021215
v -2.037042 0.149778 0.021215
v -2.038253 0.163258 0.021215
v -2.065219 0.150137 -0.193154
v -2.044329 0.148739 -0.181152
v -1.564170 0.233734 -0.181152
v -1.544049 0.229861 -0.193154
v -1.876172 0.238485 -0.179652
v -1.876172 0.238485 -0.194654
v -1.620427 0.247541 -0.194654
v -1.620427 0.247541 -0.179652
v -2.044329 0.148739 0.016900
v -2.065585 0.150161 0.016900
v -1.564170 0.233734 0.016900
v -1.544049 0.229861 0.016900
v -2.022066 -0.189886 0.229781
v -2.001133 -0.188779 0.217779
v -2.001133 0.241972 0.205781
v -2.018991 0.250730 0.217783
v -1.575207 0.162960 0.229781
v -1.595328 0.166833 0.217779
v -1.554450 0.254605 0.205781
v -1.529562 0.260970 0.217783
v -1.900989 0.026326 0.229781
v -1.900989 0.026326 0.217779
v -1.877929 0.291289 0.205781
v -1.882823 0.304419 0.217783
v -1.613685 0.276544 0.205781
v -1.607385 0.289425 0.217783
v -1.645744 0.138653 0.229781
v -1.645744 0.138653 0.217779
v -2.022066 -0.189886 0.013728
v -2.001133 -0.188779 0.013728
v -2.018991 0.250730 0.013728
v -2.001133 0.241972 0.013728
v -1.575207 0.162960 0.013728
v -1.595328 0.166833 0.013728
v -1.529561 0.260970 0.013728
v -1.554450 0.254605 0.013728
v -1.883087 0.305129 0.013728
v -1.877928 0.291288 0.013728
v -1.607232 0.289737 0.013728
v -1.613685 0.276544 0.013728
v -1.575322 0.180445 0.217574
v -1.574111 0.166965 0.217574
v -2.038253 0.163258 0.217574
v -2.037042 0.149778 0.217574
v -1.575322 0.180445 0.009412
v -1.574111 0.166965 0.009412
v -2.038253 0.163258 0.009412
v -2.037042 0.149778 0.009412
v -2.044329 0.148739 0.211780
v -2.065219 0.150137 0.223782
v -1.544050 0.229861 0.223782
v -1.564170 0.233734 0.211780
v -1.876172 0.238485 0.222282
v -1.876172 0.238485 0.213279
v -1.620427 0.247541 0.213280
v -1.620427 0.247541 0.222282
v -2.065585 0.150161 0.013728
v -2.044329 0.148739 0.013728
v -1.544049 0.229861 0.013728
v -1.564170 0.233734 0.013728
v -2.001137 -0.188779 0.217779
v -2.001137 -0.188779 0.229781
v -1.575210 0.162961 0.229781
v -1.575210 0.162961 0.217779
v -1.900989 0.026326 0.217779
v -1.900989 0.026326 0.229781
v -1.645744 0.138653 0.217779
v -1.645744 0.138653 0.229781
v -2.044332 0.148739 0.229781
v -2.044332 0.148739 0.217779
v -1.544053 0.229862 0.229781
v -1.544053 0.229862 0.217779
v -1.876172 0.238485 0.229781
v -1.876172 0.238485 0.217779
v -1.620427 0.247541 0.217779
v -1.620427 0.247541 0.229781
vt 0.167469 0.241943
vt 0.167469 0.259180
vt 0.167469 0.259180
vt 0.167469 0.241943
vt 0.220017 0.207051
vt 0.237254 0.207051
vt 0.237254 0.207051
vt 0.220017 0.207051
vt 0.224379 0.259390
vt 0.228531 0.259390
vt 0.228531 0.259390
vt 0.224379 0.259390
vt 0.228531 0.206841
vt 0.220017 0.206841
vt 0.220017 0.206841
vt 0.228531 0.206841
vt 0.167678 0.272265
vt 0.167678 0.268113
vt 0.167678 0.268113
vt 0.167678 0.272265
vt 0.167678 0.267903
vt 0.167678 0.259390
vt 0.167678 0.259390
vt 0.167678 0.267903
vt 0.228531 0.259180
vt 0.220017 0.259180
vt 0.220017 0.259180
vt 0.228531 0.259180
vt 0.167678 0.259180
vt 0.167678 0.241943
vt 0.167678 0.241943
vt 0.167678 0.259180
vt 0.202361 0.172158
vt 0.202361 0.206841
vt 0.202361 0.206841
vt 0.202361 0.172158
vt 0.202361 0.259390
vt 0.202361 0.259390
vt 0.202361 0.241734
vt 0.202361 0.207051
vt 0.202361 0.207051
vt 0.202361 0.241734
vt 0.167678 0.207051
vt 0.167678 0.207051
vt 0.167678 0.241734
vt 0.167678 0.241734
vt 0.167678 0.206841
vt 0.167678 0.206841
vt 0.237254 0.259180
vt 0.233102 0.259180
vt 0.233102 0.259180
vt 0.237254 0.259180
vt 0.202571 0.241734
vt 0.219808 0.241734
vt 0.219808 0.241734
vt 0.202571 0.241734
vt 0.219808 0.259180
vt 0.219808 0.241943
vt 0.219808 0.241943
vt 0.219808 0.259180
vt 0.224379 0.268113
vt 0.224379 0.272265
vt 0.224379 0.272265
vt 0.224379 0.268113
vt 0.167469 0.276627
vt 0.167469 0.268113
vt 0.167469 0.268113
vt 0.167469 0.276627
vt 0.232892 0.224497
vt 0.228740 0.224497
vt 0.228740 0.224497
vt 0.232892 0.224497
vt 0.237254 0.172158
vt 0.228740 0.172158
vt 0.228740 0.172158
vt 0.237254 0.172158
vt 0.167469 0.267903
vt 0.167469 0.259390
vt 0.167469 0.259390
vt 0.167469 0.267903
vt 0.219808 0.172158
vt 0.202571 0.172158
vt 0.202571 0.172158
vt 0.219808 0.172158
vt 0.167469 0.172158
vt 0.132785 0.172158
vt 0.132785 0.172158
vt 0.167469 0.172158
vt 0.228740 0.206841
vt 0.228740 0.206841
vt 0.132785 0.207051
vt 0.167469 0.207051
vt 0.167469 0.207051
vt 0.132785 0.207051
vt 0.167469 0.241734
vt 0.167469 0.241734
vt 0.132785 0.241734
vt 0.132785 0.241734
vt 0.132785 0.206841
vt 0.132785 0.206841
vt 0.202361 0.276627
vt 0.202361 0.272474
vt 0.202361 0.272474
vt 0.202361 0.276627
vt 0.219808 0.241734
vt 0.202571 0.241734
vt 0.202571 0.241734
vt 0.219808 0.241734
vt 0.232892 0.268113
vt 0.224379 0.268113
vt 0.224379 0.268113
vt 0.232892 0.268113
vt 0.219808 0.241943
vt 0.219808 0.259180
vt 0.219808 0.259180
vt 0.219808 0.241943
vt 0.224379 0.272265
vt 0.224379 0.272265
vt 0.219808 0.207051
vt 0.219808 0.207051
vt 0.202571 0.259180
vt 0.202571 0.241943
vt 0.202571 0.241943
vt 0.202571 0.259180
vt 0.202571 0.207051
vt 0.202571 0.207051
vt 0.232892 0.272265
vt 0.232892 0.272265
vt 0.228740 0.263751
vt 0.232892 0.263751
vt 0.232892 0.267903
vt 0.228740 0.267903
vt 0.228740 0.263751
vt 0.228740 0.267903
vt 0.232892 0.267903
vt 0.232892 0.263751
vt 0.202571 0.263751
vt 0.211084 0.263751
vt 0.211084 0.272265
vt 0.202571 0.272265
vt 0.202571 0.263751
vt 0.202571 0.272265
vt 0.211084 0.272265
vt 0.211084 0.263751
vt 0.224169 0.259390
vt 0.224169 0.276627
vt 0.220017 0.276627
vt 0.220017 0.259390
vt 0.224169 0.259390
vt 0.220017 0.259390
vt 0.220017 0.276627
vt 0.224169 0.276627
vt 0.202361 0.259180
vt 0.202361 0.241943
vt 0.202361 0.241943
vt 0.202361 0.259180
vt 0.228531 0.224497
vt 0.220017 0.224497
vt 0.220017 0.224497
vt 0.228531 0.224497
vt 0.202361 0.267903
vt 0.202361 0.267903
vt 0.228531 0.172158
vt 0.220017 0.172158
vt 0.220017 0.172158
vt 0.228531 0.172158
vt 0.202361 0.272265
vt 0.202361 0.268113
vt 0.202361 0.268113
vt 0.202361 0.272265
vt 0.167678 0.172158
vt 0.167678 0.172158
vt 0.233102 0.224497
vt 0.237254 0.224497
vt 0.233102 0.224497
vt 0.237254 0.224497
vt 0.237254 0.224287
vt 0.220017 0.224287
vt 0.237254 0.224287
vt 0.220017 0.224287
vt 0.132785 0.259180
vt 0.132785 0.241943
vt 0.132785 0.259180
vt 0.132785 0.241943
vt 0.228531 0.267903
vt 0.224379 0.267903
vt 0.228531 0.267903
vt 0.224379 0.267903
vt 0.228740 0.259390
vt 0.232892 0.259390
vt 0.232892 0.263542
vt 0.228740 0.263542
vt 0.228740 0.259390
vt 0.228740 0.263542
vt 0.232892 0.263542
vt 0.232892 0.259390
vt 0.211294 0.263751
vt 0.219808 0.263751
vt 0.219808 0.272265
vt 0.211294 0.272265
vt 0.211294 0.263751
vt 0.211294 0.272265
vt 0.219808 0.272265
vt 0.219808 0.263751
vt 0.219808 0.259390
vt 0.219808 0.263542
vt 0.202571 0.263542
vt 0.202571 0.259390
vt 0.219808 0.259390
vt 0.202571 0.259390
vt 0.202571 0.263542
vt 0.219808 0.263542
vt 0.202571 0.206841
vt 0.219808 0.206841
vt 0.202571 0.206841
vt 0.219808 0.206841
vt 0.132785 0.259390
vt 0.132785 0.267903
vt 0.132785 0.259390
vt 0.132785 0.267903
vt 0.237254 0.206841
vt 0.237254 0.206841
vt 0.132785 0.268113
vt 0.132785 0.276627
vt 0.132785 0.268113
vt 0.132785 0.276627
vt 0.228740 0.259180
vt 0.232892 0.259180
vt 0.228740 0.259180
vt 0.232892 0.259180
vt 0.167469 0.206841
vt 0.167469 0.206841
vt 0.167678 0.276627
vt 0.167678 0.272474
vt 0.167678 0.272474
vt 0.167678 0.276627
vt 0.202571 0.241943
vt 0.202571 0.259180
vt 0.202571 0.259180
vt 0.202571 0.241943
vt 0.219808 0.207051
vt 0.202571 0.207051
vt 0.202571 0.207051
vt 0.219808 0.207051
vt 0.232892 0.272265
vt 0.232892 0.268113
vt 0.232892 0.268113
vt 0.232892 0.272265
vn 0.7102 -0.3642 -0.6025
vn 0.4028 -0.9153 0.0000
vn 0.3586 -0.8265 0.4340
vn -0.0000 0.0000 1.0000
vn 0.0528 -0.9986 0.0000
vn -0.1890 -0.9820 0.0000
vn 0.9960 0.0895 0.0000
vn 0.0000 0.0000 -1.0000
vn -0.9960 -0.0895 -0.0000
vn 0.7102 -0.3642 0.6025
vn 0.3586 -0.8265 -0.4340
vn 0.9066 -0.4221 0.0000
vn 0.9065 -0.4222 0.0000
vn 0.3258 -0.9454 0.0000
vn -0.9919 -0.1269 0.0000
vn -0.0354 0.9994 -0.0000
vn -0.4708 0.8822 -0.0000
vn 0.2255 0.9742 0.0000
vn 0.0576 0.1605 -0.9854
vn -0.0464 -0.1911 0.9805
vn -0.0444 0.0912 -0.9948
vn 0.0336 -0.0811 0.9961
vn 0.0015 0.1377 -0.9905
vn -0.0012 -0.1093 0.9940
vn -0.0557 -0.9984 -0.0000
vn 0.0550 0.9985 -0.0025
vn 0.3716 -0.9284 -0.0000
vn -0.3692 0.9293 -0.0019
vn -0.9065 0.4222 0.0000
vn 0.9073 -0.4204 -0.0000
vn -0.9080 0.4190 -0.0008
vn -0.3473 -0.9377 -0.0000
vn 0.3454 0.9385 -0.0008
vn 0.0371 -0.9993 0.0000
vn -0.0371 0.9993 -0.0000
vn 0.9919 0.1269 0.0000
vn -0.9920 -0.1264 -0.0008
vn 0.0115 -0.0485 0.9988
vn -0.0069 0.0291 -0.9996
vn 0.0215 -0.0238 0.9995
vn -0.0228 0.0182 -0.9996
vn 0.0254 -0.0846 0.9961
vn 0.0076 0.0572 -0.9983
vn 0.0297 0.1313 0.9909
vn -0.0850 -0.2340 -0.9685
vn -0.0255 0.0689 0.9973
vn 0.0566 -0.1078 -0.9926
vn 0.0009 0.0831 0.9965
vn -0.0020 -0.1802 -0.9836
vn 0.0550 0.9985 0.0025
vn -0.3692 0.9293 0.0019
vn -0.9080 0.4190 0.0008
vn 0.3454 0.9385 0.0008
vn -0.9920 -0.1264 0.0008
vn 0.0069 -0.0291 -0.9996
vn -0.0115 0.0485 0.9988
vn 0.0263 -0.0182 -0.9995
vn -0.0186 0.0238 0.9995
vn -0.0063 -0.0576 -0.9983
vn -0.0138 0.0810 0.9966
usemtl Atlas
s off
f 9/1/1 1/2/1 2/3/1 10/4/1
f 15/5/2 9/6/2 10/7/2 16/8/2
f 5/9/3 15/10/3 16/11/3 6/12/3
f 45/13/4 19/14/4 20/15/4 46/16/4
f 27/17/4 23/18/4 24/19/4 28/20/4
f 47/21/4 21/22/4 22/23/4 48/24/4
f 19/25/4 25/26/4 26/27/4 20/28/4
f 25/29/4 27/30/4 28/31/4 26/32/4
f 1/33/5 17/34/5 18/35/5 2/36/5
f 6/37/6 22/23/6 21/22/6 5/38/6
f 33/39/7 29/40/7 30/41/7 34/42/7
f 29/40/8 31/43/8 32/44/8 30/41/8
f 31/43/9 35/45/9 36/46/9 32/44/9
f 35/45/4 33/39/4 34/42/4 36/46/4
f 17/34/4 45/47/4 46/48/4 18/35/4
f 23/49/4 47/50/4 48/51/4 24/52/4
f 57/53/10 49/54/10 50/55/10 58/56/10
f 63/57/2 57/58/2 58/59/2 64/60/2
f 53/61/11 63/62/11 64/63/11 54/64/11
f 93/65/8 67/66/8 68/67/8 94/68/8
f 75/69/8 71/70/8 72/71/8 76/72/8
f 95/73/8 69/74/8 70/75/8 96/76/8
f 67/77/8 73/78/8 74/79/8 68/80/8
f 73/81/8 75/82/8 76/83/8 74/84/8
f 49/85/5 65/86/5 66/87/5 50/88/5
f 54/89/6 70/75/6 69/74/6 53/90/6
f 81/91/7 77/92/7 78/93/7 82/94/7
f 77/92/4 79/95/4 80/96/4 78/93/4
f 79/95/9 83/97/9 84/98/9 80/96/9
f 83/97/8 81/91/8 82/94/8 84/98/8
f 65/86/8 93/99/8 94/100/8 66/87/8
f 71/101/8 95/102/8 96/103/8 72/104/8
f 97/105/12 101/106/12 102/107/12 98/108/12
f 107/109/13 99/110/13 100/111/13 108/112/13
f 101/113/2 103/114/2 104/115/2 102/116/2
f 103/117/14 100/111/14 99/110/14 104/118/14
f 98/108/15 105/119/15 106/120/15 97/105/15
f 111/121/16 110/122/16 109/123/16 112/124/16
f 110/125/17 106/120/17 105/119/17 109/126/17
f 108/112/18 111/127/18 112/128/18 107/109/18
f 40/129/19 43/130/19 13/131/19 7/132/19
f 39/133/20 8/134/20 14/135/20 44/136/20
f 42/137/21 37/138/21 3/139/21 11/140/21
f 41/141/22 12/142/22 4/143/22 38/144/22
f 43/145/23 42/146/23 11/147/23 13/148/23
f 44/149/24 14/150/24 12/151/24 41/152/24
f 25/29/25 12/153/25 14/154/25 27/30/25
f 26/32/26 28/31/26 13/155/26 11/156/26
f 19/25/27 4/157/27 12/158/27 25/26/27
f 20/28/28 26/27/28 11/159/28 3/160/28
f 6/37/13 40/161/13 48/24/13 22/23/13
f 5/38/29 21/22/29 47/21/29 39/162/29
f 45/13/30 38/163/30 4/164/30 19/14/30
f 46/16/31 20/15/31 3/165/31 37/166/31
f 27/17/32 14/167/32 8/168/32 23/18/32
f 28/20/33 24/19/33 7/169/33 13/170/33
f 31/43/34 29/40/34 33/39/34 35/45/34
f 32/44/35 36/46/35 34/42/35 30/41/35
f 17/34/36 1/33/36 38/171/36 45/47/36
f 18/35/37 46/48/37 37/172/37 2/36/37
f 40/173/13 7/174/13 24/52/13 48/51/13
f 39/175/29 47/50/29 23/49/29 8/176/29
f 41/177/38 9/6/38 15/5/38 44/178/38
f 42/179/39 43/180/39 16/8/39 10/7/39
f 38/181/40 1/2/40 9/1/40 41/182/40
f 37/183/41 42/184/41 10/4/41 2/3/41
f 44/185/42 15/10/42 5/9/42 39/186/42
f 43/187/43 40/188/43 6/12/43 16/11/43
f 62/189/44 92/190/44 87/191/44 56/192/44
f 61/193/45 55/194/45 88/195/45 91/196/45
f 52/197/46 86/198/46 89/199/46 60/200/46
f 51/201/47 59/202/47 90/203/47 85/204/47
f 60/205/48 89/206/48 92/207/48 62/208/48
f 59/209/49 61/210/49 91/211/49 90/212/49
f 61/213/25 59/214/25 74/84/25 76/83/25
f 62/215/50 75/82/50 73/81/50 60/216/50
f 59/217/27 51/218/27 68/80/27 74/79/27
f 60/219/51 73/78/51 67/77/51 52/220/51
f 95/73/13 87/221/13 53/90/13 69/74/13
f 96/76/29 70/75/29 54/89/29 88/222/29
f 51/223/30 85/224/30 94/68/30 68/67/30
f 52/225/52 67/66/52 93/65/52 86/226/52
f 55/227/32 61/228/32 76/72/32 72/71/32
f 56/229/53 71/70/53 75/69/53 62/230/53
f 82/94/34 78/93/34 80/96/34 84/98/34
f 81/91/35 83/97/35 79/95/35 77/92/35
f 85/231/36 50/88/36 66/87/36 94/100/36
f 86/232/54 93/99/54 65/86/54 49/85/54
f 71/101/13 56/233/13 87/234/13 95/102/13
f 72/104/29 96/103/29 88/235/29 55/236/29
f 64/60/55 58/59/55 90/237/55 91/238/55
f 63/57/56 92/239/56 89/240/56 57/58/56
f 58/56/57 50/55/57 85/241/57 90/242/57
f 57/53/58 89/243/58 86/244/58 49/54/58
f 54/64/59 64/63/59 91/245/59 88/246/59
f 53/61/60 87/247/60 92/248/60 63/62/60
f 103/114/8 101/113/8 110/122/8 111/121/8
f 104/115/4 112/124/4 109/123/4 102/116/4
f 101/106/8 97/105/8 106/120/8 110/125/8
f 102/107/4 109/126/4 105/119/4 98/108/4
f 100/111/8 103/117/8 111/127/8 108/112/8
f 99/110/4 107/109/4 112/128/4 104/118/4
o Secondary_Forks_Cube.005
v -1.624632 0.187660 0.059638
v -1.656854 0.256868 0.059638
v -1.624632 0.187660 -0.000277
v -1.656854 0.256868 -0.000277
v -0.689941 0.417540 0.088193
v -0.743445 0.532460 0.088193
v -0.689941 0.417540 -0.006357
v -0.743445 0.532460 -0.006357
v -0.895093 0.310995 -0.002136
v -0.969201 0.470170 -0.002136
v -0.895093 0.310995 0.083973
v -0.969201 0.470170 0.083973
v -1.624632 0.187660 -0.054127
v -1.656854 0.256868 -0.054127
v -1.624632 0.187660 0.005788
v -1.656854 0.256868 0.005788
v -0.689941 0.417540 -0.082682
v -0.743445 0.532460 -0.082682
v -0.689941 0.417540 0.011868
v -0.743445 0.532460 0.011868
v -0.895093 0.310995 0.007647
v -0.969201 0.470170 0.007647
v -0.895093 0.310995 -0.078462
v -0.969201 0.470170 -0.078462
vt 0.137883 0.862117
vt 0.129866 0.862117
vt 0.129866 0.870134
vt 0.137883 0.870134
vt 0.113638 0.862117
vt 0.105621 0.862117
vt 0.105621 0.878216
vt 0.113638 0.878216
vt 0.121720 0.886297
vt 0.121720 0.878280
vt 0.105621 0.878280
vt 0.105621 0.886297
vt 0.129802 0.870199
vt 0.121785 0.870199
vt 0.121785 0.878216
vt 0.129802 0.878216
vt 0.121720 0.878216
vt 0.121720 0.862117
vt 0.113703 0.862117
vt 0.113703 0.878216
vt 0.129802 0.862117
vt 0.121785 0.862117
vt 0.121785 0.870134
vt 0.129802 0.870134
vt 0.105621 0.894379
vt 0.121720 0.894379
vt 0.121720 0.886362
vt 0.105621 0.886362
vt 0.129802 0.878280
vt 0.121785 0.878280
vt 0.121785 0.886297
vt 0.129802 0.886297
vt 0.137883 0.862117
vt 0.137883 0.870134
vt 0.129866 0.870134
vt 0.129866 0.862117
vt 0.113638 0.862117
vt 0.113638 0.878216
vt 0.105621 0.878216
vt 0.105621 0.862117
vt 0.121720 0.886297
vt 0.105621 0.886297
vt 0.105621 0.878280
vt 0.121720 0.878280
vt 0.129802 0.870199
vt 0.129802 0.878216
vt 0.121785 0.878216
vt 0.121785 0.870199
vt 0.121720 0.878216
vt 0.113703 0.878216
vt 0.113703 0.862117
vt 0.121720 0.862117
vt 0.129802 0.862117
vt 0.129802 0.870134
vt 0.121785 0.870134
vt 0.121785 0.862117
vt 0.105621 0.894379
vt 0.105621 0.886362
vt 0.121720 0.886362
vt 0.121720 0.894379
vt 0.129802 0.878280
vt 0.129802 0.886297
vt 0.121785 0.886297
vt 0.121785 0.878280
vn -0.9066 -0.4221 0.0000
vn 0.9066 0.4221 0.0000
vn -0.0309 -0.0144 0.9994
vn 0.4609 -0.8875 0.0000
vn -0.2963 0.9551 0.0000
vn -0.2660 0.9640 0.0000
vn 0.1667 -0.9860 0.0000
vn -0.0166 -0.0077 0.9998
vn -0.0309 -0.0144 -0.9994
vn -0.0166 -0.0077 -0.9998
usemtl Atlas
s off
f 113/249/61 114/250/61 116/251/61 115/252/61
f 119/253/62 120/254/62 118/255/62 117/256/62
f 123/257/63 124/258/63 114/259/63 113/260/63
f 121/261/64 119/262/64 117/263/64 123/264/64
f 122/265/65 116/266/65 114/267/65 124/268/65
f 120/269/66 122/270/66 124/271/66 118/272/66
f 115/273/67 121/274/67 123/275/67 113/276/67
f 117/277/68 118/278/68 124/279/68 123/280/68
f 125/281/61 127/282/61 128/283/61 126/284/61
f 131/285/62 129/286/62 130/287/62 132/288/62
f 135/289/69 125/290/69 126/291/69 136/292/69
f 133/293/64 135/294/64 129/295/64 131/296/64
f 134/297/65 136/298/65 126/299/65 128/300/65
f 132/301/66 130/302/66 136/303/66 134/304/66
f 127/305/67 125/306/67 135/307/67 133/308/67
f 129/309/70 135/310/70 136/311/70 130/312/70
o Main_Forks_Cube.006
v -0.840025 0.455601 0.077661
v -0.753475 0.514681 0.077661
v -0.840025 0.455601 -0.068213
v -0.753475 0.514681 -0.068213
v -0.365713 0.041574 -0.110929
v -0.195931 0.157469 -0.110929
v -0.365713 0.041574 0.127498
v -0.195931 0.157469 0.127498
v -0.022476 -0.083491 0.119645
v -0.134043 -0.087362 0.136833
v -0.056907 -0.097310 0.129100
v -0.097744 -0.098727 0.135391
v -0.001988 0.002807 0.136833
v -0.006363 -0.072492 0.119645
v 0.015309 -0.021542 0.135391
v 0.013708 -0.049104 0.129100
v -0.022476 -0.083491 -0.122615
v -0.134033 -0.087367 -0.120265
v -0.056906 -0.097310 -0.122300
v -0.097739 -0.098729 -0.121440
v -0.001998 0.002816 -0.120263
v -0.006363 -0.072492 -0.122615
v 0.015304 -0.021538 -0.121439
v 0.013706 -0.049102 -0.122300
v -0.840025 0.455601 -0.068584
v -0.753475 0.514681 -0.068584
v -0.840025 0.455601 0.077290
v -0.753475 0.514681 0.077290
v -0.365713 0.041574 0.120006
v -0.195931 0.157469 0.120006
v -0.365713 0.041574 -0.118420
v -0.195931 0.157469 -0.118420
v -0.022476 -0.083491 -0.110568
v -0.134043 -0.087362 -0.127756
v -0.056907 -0.097310 -0.120022
v -0.097744 -0.098727 -0.126314
v -0.001988 0.002807 -0.127755
v -0.006363 -0.072492 -0.110568
v 0.015309 -0.021542 -0.126313
v 0.013708 -0.049104 -0.120022
v -0.022476 -0.083491 0.131693
v -0.134033 -0.087367 0.129342
v -0.056906 -0.097310 0.131377
v -0.097739 -0.098729 0.130517
v -0.001998 0.002816 0.129340
v -0.006363 -0.072492 0.131693
v 0.015304 -0.021538 0.130517
v 0.013706 -0.049102 0.131377
vt 0.167657 0.801433
vt 0.175060 0.801433
vt 0.175060 0.808837
vt 0.167657 0.808837
vt 0.167657 0.824028
vt 0.175060 0.824028
vt 0.175060 0.825557
vt 0.167657 0.825557
vt 0.175060 0.831047
vt 0.167657 0.831047
vt 0.170872 0.816240
vt 0.171845 0.816240
vt 0.171845 0.823091
vt 0.170872 0.823091
vt 0.176973 0.816240
vt 0.182464 0.816240
vt 0.182464 0.823643
vt 0.176973 0.823643
vt 0.160253 0.816240
vt 0.165744 0.816240
vt 0.165744 0.823643
vt 0.160253 0.823643
vt 0.175445 0.816240
vt 0.175445 0.823643
vt 0.167272 0.823643
vt 0.167272 0.816240
vt 0.167472 0.816241
vt 0.167472 0.823566
vt 0.169201 0.816249
vt 0.169201 0.823358
vt 0.175251 0.823567
vt 0.175251 0.816240
vt 0.173466 0.823358
vt 0.173466 0.816249
vt 0.168059 0.823842
vt 0.174659 0.823842
vt 0.167657 0.801433
vt 0.167657 0.808837
vt 0.175060 0.808837
vt 0.175060 0.801433
vt 0.167657 0.824028
vt 0.167657 0.825557
vt 0.175060 0.825557
vt 0.175060 0.824028
vt 0.167657 0.831047
vt 0.175060 0.831047
vt 0.170872 0.816240
vt 0.170872 0.823091
vt 0.171845 0.823091
vt 0.171845 0.816240
vt 0.176973 0.816240
vt 0.176973 0.823643
vt 0.182464 0.823643
vt 0.182464 0.816240
vt 0.160253 0.816240
vt 0.160253 0.823643
vt 0.165744 0.823643
vt 0.165744 0.816240
vt 0.175445 0.816240
vt 0.175445 0.823643
vt 0.167272 0.823643
vt 0.167472 0.823566
vt 0.167472 0.816241
vt 0.167272 0.816240
vt 0.169201 0.823358
vt 0.169201 0.816249
vt 0.175251 0.816240
vt 0.175251 0.823567
vt 0.173466 0.816249
vt 0.173466 0.823358
vt 0.174659 0.823842
vt 0.168059 0.823842
vn -0.5638 0.8259 0.0000
vn -0.0222 0.0325 0.9992
vn -0.0460 0.0673 0.9967
vn 0.5638 -0.8259 0.0000
vn 0.5395 0.8420 0.0000
vn -0.6576 -0.7534 0.0000
vn 0.6235 0.7818 -0.0000
vn -0.2988 -0.9543 0.0000
vn 0.0347 -0.9994 0.0000
vn 0.3725 -0.9280 0.0000
vn 0.8152 0.5791 -0.0000
vn 0.9983 -0.0579 -0.0000
vn 0.7589 -0.6512 -0.0000
vn 0.0272 -0.0398 0.9988
vn 0.1560 -0.2284 0.9610
vn 0.4304 -0.6305 0.6459
vn -0.4863 -0.8738 -0.0000
vn -0.0222 0.0325 -0.9992
vn -0.0460 0.0673 -0.9967
vn 0.0272 -0.0398 -0.9988
vn 0.1560 -0.2284 -0.9610
vn 0.4304 -0.6305 -0.6460
usemtl Atlas
s off
f 137/313/71 138/314/71 140/315/71 139/316/71
f 146/317/72 149/318/72 144/319/72 143/320/72
f 143/320/73 144/319/73 138/321/73 137/322/73
f 153/323/74 158/324/74 150/325/74 145/326/74
f 142/327/75 140/328/75 138/329/75 144/330/75
f 139/331/76 141/332/76 143/333/76 137/334/76
f 157/335/77 142/327/77 144/330/77 149/336/77
f 146/337/78 154/338/78 156/339/78 148/340/78
f 148/340/79 156/339/79 155/341/79 147/342/79
f 147/342/80 155/341/80 153/323/80 145/326/80
f 157/335/81 149/336/81 151/343/81 159/344/81
f 159/344/82 151/343/82 152/345/82 160/346/82
f 160/346/83 152/345/83 150/325/83 158/324/83
f 149/318/84 146/317/84 148/347/84 151/348/84
f 151/348/85 148/347/85 147/342/85 152/345/85
f 152/345/86 147/342/86 145/326/86 150/325/86
f 141/332/87 154/338/87 146/337/87 143/333/87
f 161/349/71 163/350/71 164/351/71 162/352/71
f 170/353/88 167/354/88 168/355/88 173/356/88
f 167/354/89 161/357/89 162/358/89 168/355/89
f 177/359/74 169/360/74 174/361/74 182/362/74
f 166/363/75 168/364/75 162/365/75 164/366/75
f 163/367/76 161/368/76 167/369/76 165/370/76
f 181/371/77 173/372/77 168/364/77 166/363/77
f 170/373/78 172/374/78 180/375/78 178/376/78
f 172/374/79 171/377/79 179/378/79 180/375/79
f 171/377/80 169/360/80 177/359/80 179/378/80
f 181/371/81 183/379/81 175/380/81 173/372/81
f 183/379/82 184/381/82 176/382/82 175/380/82
f 184/381/83 182/362/83 174/361/83 176/382/83
f 173/356/90 175/383/90 172/384/90 170/353/90
f 175/383/91 176/382/91 171/377/91 172/384/91
f 176/382/92 174/361/92 169/360/92 171/377/92
f 165/370/87 167/369/87 170/373/87 178/376/87
