# Blender v2.92.0 OBJ File: 'uploads_files_975794_Mass+Production+Civilian+(MPC)+unit-01.blend'
# www.blender.org
mtllib hips.mtl
o 2_Hips/waist_Cube.023
v 0.507101 0.909192 -0.600796
v 0.550223 0.909177 -0.297599
v 0.778158 0.909164 -0.003055
v 0.550229 0.909150 0.291480
v 0.507096 0.909137 0.570496
v 0.983631 0.909188 -0.514862
v 1.321694 0.909176 -0.260029
v 1.415802 0.909164 -0.002854
v 1.321697 0.909152 0.254311
v 0.986959 0.909140 0.506499
v 0.531406 0.615521 -0.667745
v 0.742376 0.590788 -0.287432
v 0.969502 0.590788 -0.002952
v 0.673953 0.615521 0.281528
v 0.531404 0.614142 0.650632
v 1.062833 0.615521 -0.571912
v 1.440395 0.615521 -0.287432
v 1.544484 0.615521 -0.002952
v 1.440395 0.615521 0.281528
v 1.062833 0.615521 0.566008
v 0.428052 0.222456 -0.571912
v 0.638023 0.222456 -0.287432
v 0.865149 0.222456 -0.002952
v 0.673953 0.222456 0.281528
v 0.531406 0.222463 0.565938
v 0.428052 0.013099 -0.436858
v 0.531406 0.013099 -0.287432
v 0.531406 0.013099 -0.002952
v 0.531406 0.013099 0.281528
v 0.531406 0.013099 0.449643
v 0.453581 0.821014 -0.245771
v 0.641469 0.821014 -0.002952
v 0.453581 0.821014 0.239867
v 0.329092 1.090414 0.173226
v 0.465415 1.090414 -0.002952
v 0.329092 1.090414 -0.179130
v -0.000020 0.909192 -0.616819
v -0.000020 0.909183 -0.419511
v -0.000020 0.909144 0.413477
v -0.000020 0.909135 0.609519
v -0.507142 0.909192 -0.600796
v -0.550263 0.909177 -0.297599
v -0.778198 0.909164 -0.003055
v -0.550270 0.909150 0.291480
v -0.507137 0.909137 0.570496
v -0.983672 0.909188 -0.514862
v -1.321735 0.909176 -0.260029
v -1.415842 0.909164 -0.002854
v -1.321738 0.909152 0.254311
v -0.987000 0.909140 0.506499
v -0.000020 0.615521 -0.684537
v 0.001307 0.618324 0.650614
v -0.531447 0.615521 -0.667745
v -0.742417 0.590788 -0.287432
v -0.969543 0.590788 -0.002952
v -0.673994 0.615521 0.281528
v -0.532787 0.614068 0.650597
v -1.062874 0.615521 -0.571912
v -1.440436 0.615521 -0.287432
v -1.544525 0.615521 -0.002952
v -1.440436 0.615521 0.281528
v -1.062874 0.615521 0.566008
v -0.000020 0.222456 -0.571912
v -0.001356 0.222386 0.565895
v -0.428093 0.222456 -0.571912
v -0.638064 0.222456 -0.287432
v -0.865190 0.222456 -0.002952
v -0.673994 0.222456 0.281528
v -0.530096 0.222548 0.565905
v -0.428093 0.013099 -0.436858
v -0.531447 0.013099 -0.287432
v -0.531447 0.013099 -0.002952
v -0.531447 0.013099 0.281528
v -0.531447 0.013099 0.449643
v -0.000020 0.821014 -0.346350
v -0.000020 0.821014 0.340446
v -0.453622 0.821014 -0.245771
v -0.641509 0.821014 -0.002952
v -0.453622 0.821014 0.239867
v -0.329133 1.090414 0.173226
v -0.465455 1.090414 -0.002952
v -0.329133 1.090414 -0.179130
v -0.000020 1.090414 0.246202
v -0.000020 1.090414 -0.252106
v 0.453581 0.909175 -0.245849
v 0.641469 0.909164 -0.003055
v 0.453581 0.909152 0.239739
v 1.062833 0.909190 -0.571913
v 1.440395 0.909177 -0.287305
v 1.544484 0.909164 -0.002854
v 1.440395 0.909150 0.281596
v 1.062833 0.909137 0.566047
v 0.531406 0.909195 -0.667746
v -0.000020 0.909196 -0.684537
v -0.000020 0.909180 -0.346349
v -0.000020 0.909148 0.340308
v 0.531405 0.909135 0.650572
v -0.000017 0.909129 0.650555
v -0.453622 0.909175 -0.245849
v -0.641509 0.909164 -0.003055
v -0.453622 0.909152 0.239739
v -1.062874 0.909190 -0.571913
v -1.440436 0.909177 -0.287305
v -1.544525 0.909164 -0.002854
v -1.440436 0.909150 0.281596
v -1.062874 0.909137 0.566047
v -0.531447 0.909195 -0.667746
v -0.531449 0.909135 0.650538
vn 0.7838 -0.2484 -0.5692
vn 0.7630 -0.2162 -0.6092
vn 0.7789 -0.2883 -0.5570
vn 0.0278 -0.9995 0.0137
vn 0.0280 -0.9995 0.0126
vn 0.0138 -0.9990 0.0422
vn 0.0063 -0.9999 0.0146
vn 0.0006 -1.0000 -0.0009
vn 0.7536 -0.1033 0.6492
vn 0.8460 -0.0735 0.5281
vn 0.8413 -0.3554 0.4074
vn 0.0000 0.3302 0.9439
vn 0.2049 0.3232 0.9239
vn 0.7026 0.4591 0.5436
vn 0.7026 0.4591 -0.5436
vn 0.2049 0.3232 -0.9239
vn 0.0000 0.3302 -0.9439
vn 0.0000 1.0000 0.0000
vn -0.0000 1.0000 0.0001
vn -0.0264 -0.9984 -0.0498
vn -0.0278 -0.9995 0.0137
vn -0.0280 -0.9995 0.0126
vn -0.0376 -0.9988 -0.0312
vn -0.0293 -0.9986 -0.0451
vn -0.7838 -0.2484 -0.5692
vn -0.7789 -0.2883 -0.5570
vn -0.7630 -0.2162 -0.6092
vn 0.0376 -0.9988 -0.0312
vn 0.0264 -0.9984 -0.0498
vn 0.0293 -0.9986 -0.0451
vn -0.0063 -0.9999 0.0145
vn -0.0138 -0.9990 0.0422
vn -0.0007 -1.0000 -0.0009
vn -0.7536 -0.1033 0.6492
vn -0.8409 -0.3556 0.4079
vn -0.8459 -0.0751 0.5281
vn -0.2049 0.3232 0.9239
vn -0.7026 0.4591 0.5436
vn -0.7026 0.4591 -0.5436
vn -0.2049 0.3232 -0.9239
vn 0.0000 -1.0000 0.0000
vn 0.0000 -0.0015 -1.0000
vn -0.2165 -0.0015 -0.9763
vn -0.7909 -0.0008 -0.6120
vn 0.0000 -0.1300 -0.9915
vn 0.0793 -0.0775 -0.9938
vn 0.0092 -0.3945 -0.9188
vn 0.0000 -0.4052 -0.9142
vn 0.8050 -0.2851 -0.5203
vn 0.7850 -0.3193 -0.5309
vn 0.9158 -0.0431 0.3994
vn 0.9171 -0.1761 0.3577
vn 0.0000 -0.0000 -1.0000
vn 0.1048 -0.0000 -0.9945
vn 0.4005 0.0001 -0.9163
vn 0.6019 0.0002 -0.7986
vn 0.4006 0.0001 -0.9163
vn 0.3910 -0.0001 0.9204
vn 0.0788 0.0001 0.9969
vn 0.0524 -0.0710 0.9961
vn 0.3909 -0.0001 0.9205
vn 0.9391 0.0001 -0.3436
vn 0.9391 -0.0001 0.3436
vn 0.6018 -0.0001 0.7987
vn -0.0000 0.0002 1.0000
vn -0.0000 -0.1051 0.9945
vn 0.7540 -0.3676 -0.5444
vn 0.8831 -0.3779 0.2782
vn 0.7823 -0.5690 0.2534
vn 0.6446 -0.7332 0.2166
vn -0.0000 -0.3517 0.9361
vn -0.0005 -0.3517 0.9361
vn 0.4892 -0.7798 -0.3906
vn -0.2164 0.0004 0.9763
vn 0.0000 0.0004 1.0000
vn -0.7909 0.0006 0.6120
vn 0.0004 -0.3517 0.9361
vn -0.0000 -0.4855 0.8742
vn 0.2165 -0.0015 -0.9763
vn 0.7909 -0.0008 -0.6120
vn -0.0092 -0.3945 -0.9188
vn -0.0793 -0.0775 -0.9938
vn -0.8050 -0.2851 -0.5203
vn -0.7850 -0.3193 -0.5309
vn -0.9165 -0.1771 0.3586
vn -0.9156 -0.0463 0.3994
vn -0.1048 -0.0000 -0.9945
vn -0.4005 0.0001 -0.9163
vn -0.4006 0.0001 -0.9163
vn -0.6019 0.0002 -0.7986
vn -0.3911 0.0001 0.9204
vn -0.3909 0.0001 0.9204
vn -0.0528 -0.0707 0.9961
vn -0.0787 0.0003 0.9969
vn -0.9391 0.0001 -0.3436
vn -0.9391 -0.0001 0.3436
vn -0.6018 -0.0001 0.7987
vn -0.7540 -0.3676 -0.5444
vn -0.7825 -0.5680 0.2549
vn -0.8831 -0.3757 0.2809
vn -0.6446 -0.7332 0.2166
vn -0.4892 -0.7798 -0.3906
vn 0.2164 0.0004 0.9763
vn 0.7909 0.0006 0.6120
vn 0.0000 -0.5421 -0.8403
vn 0.8911 -0.4538 -0.0000
vn -0.8911 -0.4538 -0.0000
vn -0.0130 -0.9973 -0.0721
vn 0.0130 -0.9973 -0.0721
vn 0.0021 -1.0000 -0.0029
vn -0.0023 -1.0000 -0.0031
usemtl Material._Gray_metal
s 1
f 12//1 13//2 23//2 22//3
f 13//4 18//5 19//6 14//7
f 14//7 19//6 20//8
f 13//9 14//10 24//11 23//9
f 76//12 33//13 34//13 83//12
f 33//14 32//14 35//14 34//14
f 32//15 31//15 36//15 35//15
f 31//16 75//17 84//17 36//16
f 84//18 82//18 81//18 80//18 83//18 34//18 35//18 36//18
f 5//18 10//18 9//18 8//18 7//18 2//18 3//18 4//18 39//18 44//18 43//18 42//18 47//18 48//18 49//18 50//18 45//18 40//19
f 54//20 55//21 60//22 59//23 58//24
f 2//18 7//18 6//18 1//18 37//18 41//18 46//18 47//18 42//18 38//18
f 54//25 66//26 67//27 55//27
f 17//28 18//5 13//4 12//29 16//30
f 55//21 56//31 61//32 60//22
f 56//31 62//33 61//32
f 55//34 67//34 68//35 56//36
f 76//12 83//12 80//37 79//37
f 79//38 80//38 81//38 78//38
f 78//39 81//39 82//39 77//39
f 77//40 82//40 84//17 75//17
f 3//18 2//18 85//18 86//18
f 4//18 3//18 86//18 87//18
f 2//18 38//18 95//18 85//18
f 39//18 4//18 87//18 96//18
f 42//18 43//18 100//18 99//18
f 43//18 44//18 101//18 100//18
f 38//18 42//18 99//18 95//18
f 44//18 39//18 96//18 101//18
usemtl Material.002
f 73//41 72//41 71//41 70//41 26//41 27//41 28//41 29//41 30//41 74//41
f 96//42 87//43 33//43 76//42
f 87//44 86//44 32//44 33//44
f 51//45 11//46 21//47 63//48
f 11//49 12//1 22//3 21//50
f 14//10 15//51 25//52 24//11
f 94//53 93//54 11//46 51//45
f 88//55 89//56 17//56 16//57
f 92//58 97//59 15//60 20//61
f 89//62 90//62 18//62 17//62
f 90//63 91//63 19//63 18//63
f 91//64 92//58 20//61 19//64
f 97//59 98//65 52//66 15//60
f 93//54 88//55 16//57 11//46
f 21//50 22//3 27//67 26//67
f 24//11 25//52 30//68 29//69
f 23//70 24//11 29//69 28//70
f 15//60 52//66 64//71 25//72
f 22//73 23//73 28//73
f 85//74 95//75 75//75 31//74
f 86//76 85//76 31//76 32//76
f 69//77 74//78 30//78 25//72 64//71
f 96//42 76//42 79//79 101//79
f 101//80 79//80 78//80 100//80
f 51//45 63//48 65//81 53//82
f 53//83 65//84 66//26 54//25
f 56//36 68//35 69//85 57//86
f 94//53 51//45 53//82 107//87
f 102//88 58//89 59//90 103//90
f 106//91 62//92 57//93 108//94
f 103//95 59//95 60//95 104//95
f 104//96 60//96 61//96 105//96
f 105//97 61//97 62//92 106//91
f 108//94 57//93 52//66 98//65
f 107//87 53//82 58//89 102//88
f 65//84 70//98 71//98 66//26
f 68//35 73//99 74//100 69//85
f 67//101 72//101 73//99 68//35
f 57//93 69//77 64//71 52//66
f 66//102 72//102 67//102
f 99//103 77//103 75//75 95//75
f 100//104 78//104 77//104 99//104
f 26//105 70//105 65//81 63//48 21//47
f 28//106 27//106 22//106
f 72//107 66//107 71//107
f 6//18 7//18 89//18 88//18
f 7//18 8//18 90//18 89//18
f 8//18 9//18 91//18 90//18
f 9//18 10//18 92//18 91//18
f 37//18 1//18 93//18 94//18
f 5//18 40//19 98//19 97//18
f 1//18 6//18 88//18 93//18
f 10//18 5//18 97//18 92//18
f 47//18 46//18 102//18 103//18
f 48//18 47//18 103//18 104//18
f 49//18 48//18 104//18 105//18
f 50//18 49//18 105//18 106//18
f 41//18 37//18 94//18 107//18
f 40//19 45//18 108//18 98//19
f 46//18 41//18 107//18 102//18
f 45//18 50//18 106//18 108//18
f 58//24 53//108 54//20
f 16//30 12//29 11//109
f 20//8 15//110 14//7
f 62//33 56//31 57//111
