# Blender v2.92.0 OBJ File: 'uploads_files_975794_Mass+Production+Civilian+(MPC)+unit-01.blend'
# www.blender.org
mtllib hip.mtl
o 2_Hips/waist_Cube.023
v 0.320505 1.318498 -0.600796
v 0.347760 1.318478 -0.297599
v 0.491822 1.318458 -0.003055
v 0.347764 1.318438 0.291480
v 0.320502 1.318419 0.570496
v 0.621689 1.318492 -0.514862
v 0.835356 1.318475 -0.260029
v 0.894836 1.318458 -0.002854
v 0.835358 1.318440 0.254311
v 0.623792 1.318423 0.506499
v 0.335867 0.892622 -0.667745
v 0.469207 0.856754 -0.287432
v 0.612759 0.856754 -0.002952
v 0.425962 0.892622 0.281528
v 0.335866 0.890622 0.650632
v 0.671747 0.892622 -0.571912
v 0.910379 0.892622 -0.287432
v 0.976167 0.892622 -0.002952
v 0.910379 0.892622 0.281528
v 0.671747 0.892622 0.566008
v 0.270544 0.322602 -0.571912
v 0.403253 0.322602 -0.287432
v 0.546804 0.322602 -0.002952
v 0.425962 0.322602 0.281528
v 0.335867 0.322613 0.565938
v 0.270544 0.018997 -0.436858
v 0.335867 0.018997 -0.287432
v 0.335867 0.018997 -0.002952
v 0.335867 0.018997 0.281528
v 0.335867 0.018997 0.449643
v 0.286679 1.190625 -0.245771
v 0.405430 1.190625 -0.002952
v 0.286679 1.190625 0.239867
v 0.207997 1.581305 0.173226
v 0.294158 1.581305 -0.002952
v 0.207997 1.581305 -0.179130
v -0.000013 1.318499 -0.616819
v -0.000013 1.318486 -0.419511
v -0.000013 1.318429 0.413477
v -0.000013 1.318416 0.609519
v -0.320531 1.318498 -0.600796
v -0.347785 1.318478 -0.297599
v -0.491848 1.318458 -0.003055
v -0.347790 1.318438 0.291480
v -0.320528 1.318419 0.570496
v -0.621715 1.318492 -0.514862
v -0.835382 1.318475 -0.260029
v -0.894861 1.318458 -0.002854
v -0.835384 1.318440 0.254311
v -0.623818 1.318423 0.506499
v -0.000013 0.892622 -0.684537
v 0.000826 0.896685 0.650614
v -0.335893 0.892622 -0.667745
v -0.469233 0.856754 -0.287432
v -0.612784 0.856754 -0.002952
v -0.425987 0.892622 0.281528
v -0.336740 0.890514 0.650597
v -0.671773 0.892622 -0.571912
v -0.910405 0.892622 -0.287432
v -0.976193 0.892622 -0.002952
v -0.910405 0.892622 0.281528
v -0.671773 0.892622 0.566008
v -0.000013 0.322602 -0.571912
v -0.000857 0.322502 0.565895
v -0.270570 0.322602 -0.571912
v -0.403278 0.322602 -0.287432
v -0.546830 0.322602 -0.002952
v -0.425987 0.322602 0.281528
v -0.335039 0.322736 0.565905
v -0.270570 0.018997 -0.436858
v -0.335893 0.018997 -0.287432
v -0.335893 0.018997 -0.002952
v -0.335893 0.018997 0.281528
v -0.335893 0.018997 0.449643
v -0.000013 1.190625 -0.346350
v -0.000013 1.190625 0.340446
v -0.286704 1.190625 -0.245771
v -0.405456 1.190625 -0.002952
v -0.286704 1.190625 0.239867
v -0.208023 1.581305 0.173226
v -0.294184 1.581305 -0.002952
v -0.208023 1.581305 -0.179130
v -0.000013 1.581305 0.246202
v -0.000013 1.581305 -0.252106
v 0.286679 1.318474 -0.245849
v 0.405430 1.318458 -0.003055
v 0.286679 1.318441 0.239739
v 0.671747 1.318496 -0.571913
v 0.910379 1.318477 -0.287305
v 0.976167 1.318458 -0.002854
v 0.910379 1.318439 0.281596
v 0.671747 1.318419 0.566047
v 0.335867 1.318503 -0.667746
v -0.000013 1.318504 -0.684537
v -0.000013 1.318481 -0.346349
v -0.000013 1.318434 0.340308
v 0.335866 1.318416 0.650572
v -0.000011 1.318408 0.650555
v -0.286704 1.318474 -0.245849
v -0.405456 1.318458 -0.003055
v -0.286704 1.318441 0.239739
v -0.671773 1.318496 -0.571913
v -0.910405 1.318477 -0.287305
v -0.976193 1.318458 -0.002854
v -0.910405 1.318439 0.281596
v -0.671773 1.318419 0.566047
v -0.335893 1.318503 -0.667746
v -0.335894 1.318416 0.650538
vn 0.9027 -0.1256 -0.4115
vn 0.8874 -0.1096 -0.4478
vn 0.8507 -0.3033 -0.4293
vn 0.9048 -0.2196 -0.3649
vn 0.0637 -0.9978 0.0197
vn 0.0642 -0.9978 0.0182
vn 0.0284 -0.9981 0.0549
vn 0.0166 -0.9995 0.0275
vn 0.0021 -1.0000 -0.0019
vn 0.8771 -0.0524 0.4775
vn 0.9281 -0.0358 0.3706
vn 0.9409 -0.1807 0.2864
vn 0.9048 -0.2335 0.3560
vn 0.3228 0.2220 0.9201
vn 0.8703 0.2479 0.4256
vn 0.8703 0.2479 -0.4256
vn 0.3228 0.2220 -0.9201
vn 0.0000 1.0000 0.0000
vn -0.0000 1.0000 0.0001
vn -0.0682 -0.9956 -0.0639
vn -0.0637 -0.9978 0.0197
vn -0.0642 -0.9978 0.0182
vn -0.0860 -0.9953 -0.0451
vn -0.0588 -0.9955 -0.0737
vn -0.9027 -0.1256 -0.4115
vn -0.9048 -0.2196 -0.3649
vn -0.8507 -0.3033 -0.4293
vn -0.8874 -0.1096 -0.4478
vn 0.0860 -0.9953 -0.0451
vn 0.0682 -0.9956 -0.0639
vn 0.0588 -0.9955 -0.0737
vn -0.0167 -0.9995 0.0274
vn -0.0284 -0.9981 0.0549
vn -0.0023 -1.0000 -0.0020
vn -0.8771 -0.0524 0.4775
vn -0.9048 -0.2335 0.3560
vn -0.9408 -0.1808 0.2869
vn -0.9281 -0.0365 0.3706
vn -0.3228 0.2220 0.9201
vn -0.8703 0.2479 0.4256
vn -0.8703 0.2479 -0.4256
vn -0.3228 0.2220 -0.9201
vn 0.0000 -1.0000 -0.0000
vn -0.3310 -0.0010 -0.9436
vn -0.8983 -0.0004 -0.4393
vn 0.0000 -0.0908 -0.9959
vn 0.1204 -0.0583 -0.9910
vn 0.0142 -0.2920 -0.9563
vn 0.0000 -0.2960 -0.9552
vn 0.9164 -0.1414 -0.3744
vn 0.9072 -0.1617 -0.3884
vn 0.9639 -0.0198 0.2657
vn 0.9679 -0.0868 0.2359
vn 0.0000 -0.0000 -1.0000
vn 0.1632 -0.0000 -0.9866
vn 0.7662 0.0001 -0.6426
vn 0.8949 0.0001 -0.4462
vn 0.8949 0.0001 -0.4463
vn 0.2442 0.0000 0.9697
vn 0.1230 0.0001 0.9924
vn 0.0815 -0.0499 0.9954
vn 1.0000 0.0000 0.0000
vn 0.8949 -0.0001 0.4463
vn 0.7661 -0.0001 0.6427
vn -0.0001 0.0001 1.0000
vn -0.0001 -0.0726 0.9974
vn 0.2744 -0.0000 -0.9616
vn 0.9546 -0.2074 -0.2140
vn 0.8932 -0.1898 -0.4077
vn 0.9647 -0.1799 0.1921
vn 0.9310 -0.3110 0.1913
vn 0.8801 -0.4363 0.1869
vn -0.0001 -0.2537 0.9673
vn -0.0007 -0.2537 0.9673
vn 0.7587 -0.5271 -0.3828
vn -0.3309 0.0003 0.9437
vn -0.8983 0.0003 0.4393
vn 0.0006 -0.2536 0.9673
vn -0.0001 -0.3576 0.9339
vn 0.3310 -0.0010 -0.9436
vn 0.8983 -0.0004 -0.4393
vn -0.0142 -0.2920 -0.9563
vn -0.1204 -0.0583 -0.9910
vn -0.9164 -0.1414 -0.3744
vn -0.9072 -0.1617 -0.3884
vn -0.9677 -0.0872 0.2367
vn -0.9638 -0.0212 0.2657
vn -0.1632 -0.0000 -0.9866
vn -0.7662 0.0001 -0.6426
vn -0.8949 0.0001 -0.4463
vn -0.8949 0.0001 -0.4462
vn -0.2444 0.0003 0.9697
vn -0.0817 -0.0498 0.9954
vn -0.1230 0.0002 0.9924
vn -1.0000 0.0000 -0.0000
vn -0.8949 -0.0001 0.4463
vn -0.7661 -0.0001 0.6427
vn -0.2744 -0.0000 -0.9616
vn -0.8932 -0.1898 -0.4077
vn -0.9546 -0.2074 -0.2140
vn -0.9310 -0.3105 0.1922
vn -0.9646 -0.1789 0.1939
vn -0.8801 -0.4363 0.1869
vn -0.7587 -0.5271 -0.3828
vn 0.3309 0.0003 0.9437
vn 0.8983 0.0003 0.4393
vn 0.0000 -0.4064 -0.9137
vn 0.9762 -0.2167 -0.0000
vn -0.9762 -0.2167 -0.0000
vn -0.0297 -0.9941 -0.1042
vn 0.0297 -0.9941 -0.1042
vn 0.0049 -1.0000 -0.0042
vn -0.0052 -1.0000 -0.0045
usemtl Material._Gray_metal
s 1
f 12//1 13//2 23//3 22//4
f 13//5 18//6 19//7 14//8
f 14//8 19//7 20//9
f 13//10 14//11 24//12 23//13
f 76//14 33//14 34//14 83//14
f 33//15 32//15 35//15 34//15
f 32//16 31//16 36//16 35//16
f 31//17 75//17 84//17 36//17
f 84//18 82//18 81//18 80//18 83//18 34//18 35//18 36//18
f 5//19 10//19 9//19 8//19 7//19 2//19 3//19 4//19 39//19 44//19 43//19 42//19 47//19 48//19 49//19 50//19 45//19 40//19
f 54//20 55//21 60//22 59//23 58//24
f 2//19 7//19 6//19 1//19 37//19 41//19 46//19 47//19 42//19 38//19
f 54//25 66//26 67//27 55//28
f 17//29 18//6 13//5 12//30 16//31
f 55//21 56//32 61//33 60//22
f 56//32 62//34 61//33
f 55//35 67//36 68//37 56//38
f 76//39 83//39 80//39 79//39
f 79//40 80//40 81//40 78//40
f 78//41 81//41 82//41 77//41
f 77//42 82//42 84//42 75//42
f 3//19 2//19 85//19 86//19
f 4//19 3//19 86//19 87//19
f 2//19 38//19 95//19 85//19
f 39//19 4//19 87//19 96//19
f 42//19 43//19 100//19 99//19
f 43//19 44//19 101//19 100//19
f 38//19 42//19 99//19 95//19
f 44//19 39//19 96//19 101//19
usemtl Material.002
f 73//43 72//43 71//43 70//43 26//43 27//43 28//43 29//43 30//43 74//43
f 96//44 87//44 33//44 76//44
f 87//45 86//45 32//45 33//45
f 51//46 11//47 21//48 63//49
f 11//50 12//1 22//4 21//51
f 14//11 15//52 25//53 24//12
f 94//54 93//55 11//47 51//46
f 88//56 89//57 17//58 16//56
f 92//59 97//60 15//61 20//59
f 89//57 90//62 18//62 17//58
f 90//62 91//63 19//63 18//62
f 91//63 92//64 20//64 19//63
f 97//60 98//65 52//66 15//61
f 93//55 88//67 16//67 11//47
f 21//51 22//4 27//68 26//69
f 24//12 25//53 30//70 29//71
f 23//13 24//12 29//71 28//72
f 15//61 52//66 64//73 25//74
f 22//4 23//3 28//75
f 85//76 95//76 75//76 31//76
f 86//77 85//77 31//77 32//77
f 69//78 74//79 30//79 25//74 64//73
f 96//80 76//80 79//80 101//80
f 101//81 79//81 78//81 100//81
f 51//46 63//49 65//82 53//83
f 53//84 65//85 66//26 54//25
f 56//38 68//37 69//86 57//87
f 94//54 51//46 53//83 107//88
f 102//89 58//89 59//90 103//91
f 106//92 62//92 57//93 108//94
f 103//91 59//90 60//95 104//95
f 104//95 60//95 61//96 105//96
f 105//96 61//96 62//97 106//97
f 108//94 57//93 52//66 98//65
f 107//88 53//83 58//98 102//98
f 65//85 70//99 71//100 66//26
f 68//37 73//101 74//102 69//86
f 67//36 72//103 73//101 68//37
f 57//93 69//78 64//73 52//66
f 66//26 72//104 67//27
f 99//105 77//105 75//105 95//105
f 100//106 78//106 77//106 99//106
f 26//107 70//107 65//82 63//49 21//48
f 28//108 27//68 22//4
f 72//109 66//26 71//100
f 6//19 7//19 89//19 88//19
f 7//19 8//19 90//19 89//19
f 8//19 9//19 91//19 90//19
f 9//19 10//19 92//19 91//19
f 37//19 1//19 93//19 94//19
f 5//19 40//19 98//19 97//19
f 1//19 6//19 88//19 93//19
f 10//19 5//19 97//19 92//19
f 47//19 46//19 102//19 103//19
f 48//19 47//19 103//19 104//19
f 49//19 48//19 104//19 105//19
f 50//19 49//19 105//19 106//19
f 41//19 37//19 94//19 107//19
f 40//19 45//19 108//19 98//19
f 46//19 41//19 107//19 102//19
f 45//19 50//19 106//19 108//19
f 58//24 53//110 54//20
f 16//31 12//30 11//111
f 20//9 15//112 14//8
f 62//34 56//32 57//113
