# Blender v2.92.0 OBJ File: 'uploads_files_975794_Mass+Production+Civilian+(MPC)+unit-01.blend'
# www.blender.org
mtllib leftArm.mtl
o 3_Upper_Arm.L_Cube.034
v 0.398496 2.732308 -0.296762
v 0.396827 2.718370 -0.075541
v 0.395175 2.704569 0.143496
v 0.393505 2.690630 0.364717
v -0.316548 2.486761 -0.302293
v -0.318217 2.472822 -0.081072
v -0.319870 2.459021 0.137965
v -0.321539 2.445083 0.359186
v 0.347264 0.267394 -0.277192
v 0.345874 0.255789 -0.092995
v 0.344498 0.244297 0.089384
v 0.343108 0.232692 0.273581
v -0.250888 0.033747 -0.281798
v -0.252278 0.022141 -0.097600
v -0.253654 0.010650 0.084779
v -0.255043 -0.000956 0.268976
v -0.306476 2.129272 -0.088936
v 0.438375 1.724455 -0.098817
v -0.298221 0.912462 -0.104306
v -0.294093 0.304057 -0.111991
v -0.292424 0.317995 -0.333212
v -0.296552 0.926400 -0.376367
v 0.437209 1.896398 -0.096646
v -0.304806 2.143210 -0.362476
v 0.411905 2.409883 -0.083405
v 0.438994 1.911311 -0.333236
v 0.420160 1.193072 -0.098775
v 0.424287 0.584667 -0.106460
v 0.422635 0.570866 0.112578
v 0.418507 1.179271 0.120263
v 0.440160 1.739362 -0.335408
v 0.410253 2.396081 0.135633
v 0.425956 0.598606 -0.327681
v 0.421829 1.207011 -0.319996
v 0.299950 1.814488 0.373172
v 0.413574 2.423821 -0.304626
v -0.308128 2.115471 0.130102
v 0.301116 1.642586 0.371000
v -0.299874 0.898661 0.114732
v -0.295746 0.290256 0.107047
v 0.420965 0.556928 0.333799
v 0.416838 1.165333 0.341484
v -0.331685 1.409613 0.129524
v 0.408583 2.382143 0.356853
v -0.297416 0.276317 0.328268
v -0.301543 0.884722 0.335953
v -0.332851 1.581516 0.131695
v -0.309797 2.101533 0.351323
v 0.273477 2.683474 -0.297725
v 0.271807 2.669535 -0.076504
v 0.270155 2.655734 0.142534
v 0.268485 2.641796 0.363755
v 0.243168 0.226733 -0.277994
v 0.241778 0.215127 -0.093797
v 0.240402 0.203636 0.088583
v 0.239012 0.192030 0.272780
v 0.283563 2.333308 0.355891
v -0.334637 1.566609 0.368286
v 0.295945 0.508093 0.332836
v 0.288554 2.374986 -0.357908
v -0.333470 1.394706 0.366115
v 0.296809 1.158176 -0.371798
v 0.300937 0.549771 -0.328643
v -0.302893 1.601231 -0.095606
v -0.301803 1.440496 -0.097636
v -0.301224 1.615131 -0.374555
v -0.300134 1.454387 -0.376389
v 0.415487 1.881856 -0.090075
v 0.416578 1.721083 -0.092106
v 0.414925 1.707282 0.126932
v 0.413835 1.868055 0.128963
v 0.418247 1.735022 -0.313326
v 0.417157 1.895800 -0.311296
v -0.304546 1.587430 0.123432
v -0.303456 1.426695 0.121402
v 0.412165 1.854109 0.350184
v 0.413256 1.693355 0.348153
v -0.305125 1.412757 0.342622
v -0.306215 1.573492 0.344653
v 0.288236 1.644532 0.347191
v 0.287145 1.805267 0.349221
v 0.293227 1.686162 -0.371821
v 0.292137 1.846907 -0.369987
v 0.436608 1.709695 0.135439
v 0.435441 1.881639 0.137611
v 0.433656 1.866724 0.374201
v 0.434822 1.694801 0.372030
v -0.331084 1.596276 -0.102561
v -0.329918 1.424373 -0.104732
v 0.306454 1.687108 -0.397967
v 0.305288 1.859021 -0.396005
v -0.329298 1.611141 -0.400891
v -0.328132 1.439229 -0.402852
vn 0.3636 -0.9299 -0.0558
vn -0.3400 0.9387 0.0566
vn -0.3162 0.9470 0.0573
vn -0.3397 0.9388 0.0566
vn -0.3636 0.9299 0.0558
vn 0.9935 -0.1136 0.0003
vn 0.9726 -0.2322 -0.0073
vn 0.0541 -0.1190 -0.9914
vn 0.0729 -0.1672 -0.9832
vn 0.0578 -0.1285 -0.9900
vn 0.9938 -0.1109 0.0005
vn 0.9947 -0.1031 0.0010
vn 0.0338 -0.1060 0.9938
vn 0.0700 -0.1984 0.9776
vn 0.0216 -0.0751 0.9969
vn -0.9969 -0.0773 -0.0124
vn -0.9889 -0.1475 -0.0168
vn -0.9971 -0.0750 -0.0122
vn -0.9994 -0.0339 -0.0097
vn -0.9998 -0.0203 -0.0088
vn -0.9998 -0.0199 -0.0088
vn -0.9999 -0.0067 -0.0080
vn 0.0017 -0.0248 0.9997
vn -0.0006 -0.0186 0.9998
vn 0.0003 -0.0204 0.9998
vn 0.0022 -0.0254 0.9997
vn -0.0028 -0.0126 0.9999
vn 0.0409 -0.1242 0.9914
vn 0.9996 0.0276 0.0093
vn 0.9999 0.0067 0.0080
vn 0.9996 0.0282 0.0093
vn 0.9988 0.0485 0.0106
vn 0.9996 0.0270 0.0092
vn 0.4008 0.0085 -0.9161
vn 0.3919 0.0107 -0.9199
vn 0.1938 -0.0107 -0.9810
vn 0.2534 0.0053 -0.9674
vn -0.9994 -0.0336 -0.0091
vn -0.9998 -0.0202 -0.0082
vn -1.0000 -0.0067 -0.0064
vn -1.0000 -0.0069 -0.0068
vn -0.9999 -0.0068 -0.0074
vn -1.0000 -0.0067 -0.0072
vn -0.9969 -0.0774 -0.0122
vn 0.0761 0.1427 -0.9868
vn 0.1420 0.0891 -0.9858
vn -0.0231 0.0840 -0.9962
vn -0.0572 0.1790 -0.9822
vn 0.1586 0.0218 -0.9871
vn -0.0012 0.0229 -0.9997
vn 0.0247 -0.0434 -0.9988
vn -0.9994 -0.0333 -0.0086
vn -0.9998 -0.0196 -0.0075
vn 0.0077 0.0000 -1.0000
vn -0.9976 -0.0688 -0.0114
vn 0.0760 -0.0964 -0.9924
vn 0.2622 0.0784 -0.9618
vn 0.4024 0.0190 -0.9152
vn 0.1670 0.1161 -0.9791
vn -0.0013 -0.0171 0.9999
vn 0.0010 -0.0241 0.9997
vn -0.3403 0.9386 0.0566
vn -0.5455 0.8367 0.0486
vn 0.4288 -0.8882 -0.1651
vn 0.3527 -0.8977 -0.2642
vn 0.3526 -0.8977 -0.2642
vn 0.4470 -0.8836 -0.1395
vn -0.2732 0.9506 0.1473
vn -0.3869 0.8952 0.2213
vn -0.4049 0.8900 0.2097
vn -0.2684 0.9528 0.1418
vn 0.2155 -0.9763 0.0219
vn 0.3382 -0.9310 0.1374
vn 0.3307 -0.9342 0.1335
vn 0.2435 -0.9685 0.0513
vn -0.3579 0.9195 -0.1626
vn -0.2786 0.9588 -0.0558
vn -0.2659 0.9632 -0.0393
vn 0.2435 -0.9563 -0.1621
vn 0.2545 -0.9516 -0.1723
vn -0.4553 0.8884 -0.0592
vn -0.4608 0.8859 -0.0530
vn -0.4954 0.8609 0.1155
vn -0.4838 0.8654 0.1303
vn 0.5064 -0.8608 -0.0504
vn 0.1341 -0.9891 -0.0613
vn 0.4317 -0.9001 0.0588
vn 0.4447 -0.8947 0.0420
vn -0.1872 0.9805 0.0604
vn -0.1860 0.9810 0.0550
vn -0.1856 0.9812 0.0532
vn 0.5056 -0.8615 -0.0458
vn 0.5054 -0.8617 -0.0446
vn -1.0000 -0.0067 -0.0071
vn 0.2645 0.0131 -0.9643
vn 0.4199 0.0138 -0.9075
vn 0.1689 0.0126 -0.9855
vn -1.0000 -0.0067 -0.0063
vn 0.0032 0.0114 -0.9999
usemtl Material._Gray_metal
s 1
f 11//1 12//1 56//1 16//1 15//1 55//1
usemtl Material.002
f 51//2 7//3 8//3 52//4
f 53//1 54//1 14//1 13//1
f 54//1 55//1 15//1 14//1
f 2//5 50//2 51//2 52//4 4//5 3//5
f 29//6 11//7 10//7 28//6
f 63//8 53//9 13//9 21//10
f 41//11 12//7 11//7 29//6
f 28//6 10//7 9//7 33//12
f 59//13 56//14 12//14 41//15
f 40//16 15//17 16//17 45//18
f 7//19 37//20 48//21 8//19
f 75//22 39//22 46//22 78//22
f 39//22 40//16 45//18 46//22
f 52//23 57//24 44//25 4//26
f 59//13 41//15 42//27 77//27 80//27 78//27 46//27 45//28
f 57//24 81//27 76//27 44//25
f 25//29 68//30 73//30 36//31
f 27//30 28//6 33//12 34//30
f 4//32 44//33 32//29 3//32
f 72//34 34//35 62//36 82//37
f 44//33 76//30 71//30 32//29
f 6//38 17//39 37//20 7//19
f 67//40 22//41 19//42 65//43
f 19//42 20//44 40//16 39//22
f 49//45 60//46 24//47 5//48
f 32//29 71//30 68//30 25//29
f 60//46 83//49 66//50 24//47
f 62//36 63//8 21//10 22//51
f 69//30 27//30 34//30 72//30
f 5//52 24//53 17//39 6//38
f 65//43 19//42 39//22 75//22
f 82//37 62//36 22//51 67//54
f 22//41 21//55 20//44 19//42
f 34//35 33//56 62//36
f 36//57 73//58 83//49 60//46
f 1//59 36//57 60//46 49//45
f 48//60 79//27 81//27 57//24
f 8//61 48//60 57//24 52//23
f 45//28 16//14 56//14 59//13
f 33//56 9//9 53//9 63//8
f 10//1 11//1 55//1 54//1
f 9//1 10//1 54//1 53//1
f 77//30 42//30 41//11 29//6 30//30 70//30
f 1//5 49//62 50//2 2//5
f 14//17 15//17 40//16 20//44 21//55 13//17
f 6//3 7//3 51//2 50//2 49//62 5//3
f 3//32 32//29 25//29 36//31 1//32 2//32
f 68//63 71//63 85//63 23//63
f 78//64 80//65 38//66 61//67
f 66//68 83//69 91//70 92//71
f 72//72 82//73 90//74 31//75
f 81//76 79//77 58//78 35//76
f 80//65 77//79 87//80 38//66
f 71//63 76//81 86//82 85//63
f 83//69 73//83 26//84 91//70
f 76//81 81//76 35//76 86//82
f 75//85 78//64 61//67 43//85
f 24//53 66//40 64//43 17//39
f 70//86 69//86 72//72 31//75 18//86 84//86 87//80 77//79
f 82//73 67//87 93//88 90//74
f 74//89 64//90 88//91 47//89
f 73//83 68//63 23//63 26//84
f 64//90 66//68 92//71 88//91
f 79//77 74//89 47//89 58//78
f 65//92 75//85 43//85 89//93
f 30//30 29//6 28//6 27//30 69//30 70//30
f 67//87 65//92 89//93 93//88
f 74//22 79//22 48//21 37//20 17//39 64//43
f 62//36 33//56 63//8
usemtl Material._black
f 58//22 47//22 43//22 61//22
f 35//27 58//27 61//27 38//27
f 26//30 23//30 18//30 31//30
f 85//30 86//30 87//30 84//30
f 47//22 88//94 89//43 43//22
f 91//95 26//96 31//96 90//97
f 23//30 85//30 84//30 18//30
f 88//94 92//98 93//98 89//43
f 86//27 35//27 38//27 87//27
f 92//99 91//95 90//97 93//99
