# Blender v2.92.0 OBJ File: 'uploads_files_975794_Mass+Production+Civilian+(MPC)+unit-01.blend'
# www.blender.org
mtllib rightHipLeg.mtl
o arn.R_Cube.002
v 0.164800 1.016727 0.306088
v 0.163980 1.013770 0.095215
v 0.163168 1.010843 -0.113578
v 0.162348 1.007887 -0.324451
v -0.106108 1.009139 0.310647
v -0.175692 1.029402 0.100487
v -0.176504 1.026475 -0.108305
v -0.181226 1.005767 -0.319179
v 0.175492 0.294340 0.360546
v 0.172920 0.285066 -0.300934
v -0.184942 0.292115 0.366077
v -0.187316 0.329084 -0.163779
v -0.187837 0.327206 -0.297801
v -0.208082 0.853364 0.124415
v -0.188922 0.717700 0.121679
v -0.188062 0.720801 0.342900
v -0.177444 0.850214 0.365412
v 0.172372 0.723026 0.337369
v 0.185509 0.859166 0.359386
v -0.188755 0.526754 -0.174752
v -0.188369 0.473632 -0.171880
v 0.169800 0.713753 -0.324111
v 0.182707 0.849063 -0.361226
v -0.188889 0.471758 -0.305616
v -0.190634 0.711528 -0.318580
v -0.209947 0.846640 -0.355200
v 0.079179 1.011529 0.307719
v 0.100746 1.025300 0.087986
v 0.100001 1.022613 -0.103673
v 0.102556 1.007518 -0.323534
v 0.065408 0.328769 -0.301687
v 0.114374 0.848642 -0.360177
v 0.063824 0.526442 -0.312373
v 0.064211 0.473319 -0.309500
v 0.091361 0.864418 0.360435
v 0.109646 0.722639 0.338331
v -0.205802 0.250792 -0.326589
v -0.213551 0.159478 -0.339220
v -0.210560 0.170263 0.430073
v -0.202962 0.261033 0.403947
v 0.205630 0.162066 -0.345652
v 0.192260 0.253249 -0.332698
v 0.195101 0.263490 0.397839
v 0.208621 0.172850 0.423641
v -0.109768 0.866068 -0.402624
v -0.105642 0.972029 -0.379355
v 0.077435 0.872262 -0.405838
v 0.077671 0.973161 -0.382168
v -0.109768 0.866068 -0.432885
v -0.105642 0.972029 -0.409616
v 0.077435 0.872262 -0.436099
v 0.077671 0.973161 -0.412429
v -0.112845 0.856772 0.464286
v -0.092171 0.992481 0.484516
v -0.124197 0.754062 0.447802
v 0.067432 1.004264 0.481327
v 0.067700 0.862018 0.460642
v 0.069567 0.761141 0.455316
v -0.094821 1.140346 0.378020
v 0.063586 1.152433 0.373665
v -0.084300 1.099809 0.491273
v 0.057035 1.111812 0.488178
v 0.199367 0.171115 0.404553
v 0.186524 0.257210 0.380044
v 0.155851 0.050445 0.325287
v 0.199915 0.095878 0.408621
v 0.183826 0.247482 -0.313868
v 0.196526 0.160871 -0.326173
v -0.191581 0.254877 0.385846
v -0.198798 0.168657 0.410663
v -0.201639 0.158413 -0.320062
v -0.194280 0.245149 -0.308065
v 0.197074 0.085634 -0.322105
v 0.153682 0.042623 -0.232667
v -0.154219 0.048531 0.330045
v -0.198251 0.093421 0.414731
v -0.156389 0.040709 -0.227909
v -0.201092 0.083176 -0.315995
v 0.128013 0.052301 0.325696
v 0.125843 0.044476 -0.232442
v 0.162809 0.045812 0.340192
v 0.209198 0.093643 0.427923
v 0.206206 0.082858 -0.341370
v 0.160524 0.037577 -0.247212
v -0.209983 0.091056 0.434356
v -0.163628 0.043797 0.345201
v -0.165912 0.035562 -0.242202
v -0.212974 0.080271 -0.334937
v -0.187721 0.384764 -0.166790
v -0.189276 0.524879 -0.308489
v 0.065003 0.384448 -0.304698
v -0.201664 0.471331 -0.330286
v -0.202050 0.524452 -0.333158
v -0.201530 0.526327 -0.199421
v -0.201144 0.473205 -0.196549
v 0.051050 0.526015 -0.337042
v 0.051436 0.472893 -0.334170
v -0.187514 0.282842 -0.295403
v -0.188242 0.382885 -0.300812
v -0.203113 0.326695 -0.327301
v -0.203518 0.382374 -0.330311
v -0.202592 0.328574 -0.193279
v -0.202997 0.384253 -0.196289
v 0.049727 0.383937 -0.334197
v 0.050132 0.328258 -0.331187
v -0.031613 -0.022324 -0.043407
v 0.043514 -0.020966 -0.050155
v 0.010104 -0.021657 0.131165
v 0.005238 -0.021643 -0.077312
v 0.046954 -0.020976 0.097260
v -0.034575 0.133885 -0.043111
v 0.002276 0.134566 -0.077016
v 0.007141 0.134552 0.131461
v 0.040551 0.135243 -0.049859
v 0.043992 0.135233 0.097556
v -0.003728 -0.021905 0.128848
v -0.016784 -0.022136 0.119585
v -0.020997 -0.022124 -0.060961
v -0.023960 0.134085 -0.060665
v -0.006691 0.134303 0.129144
v -0.019746 0.134072 0.119881
v 0.036339 -0.021176 0.114813
v 0.023770 -0.021408 0.126378
v 0.032125 -0.021163 -0.065732
v 0.019070 -0.021394 -0.074995
v 0.029163 0.135045 -0.065436
v 0.033376 0.135033 0.115109
v 0.020807 0.134800 0.126674
v 0.059613 -0.020724 0.049296
v 0.054892 -0.020822 0.074913
v -0.043012 -0.022579 0.058514
v -0.037118 -0.022485 0.083178
v -0.045974 0.133630 0.058810
v -0.040081 0.133724 0.083474
v 0.056650 0.135484 0.049592
v 0.051930 0.135387 0.075209
v -0.044271 -0.022575 0.004557
v 0.058353 -0.020721 -0.004662
v -0.047233 0.133633 0.004853
v 0.055391 0.135488 -0.004366
v 0.029422 -0.036240 0.185052
v 0.007694 -0.036635 0.192663
v -0.078758 -0.038095 -0.008635
v -0.080635 -0.038150 0.034518
v 0.021950 -0.036218 -0.135117
v -0.000042 -0.036613 -0.138801
v -0.035054 -0.037397 0.174252
v -0.053161 -0.037711 0.149486
v -0.041754 -0.037378 -0.112804
v -0.058632 -0.037696 -0.084895
v 0.078905 -0.035308 0.103226
v 0.066284 -0.035552 0.138756
v 0.084408 -0.035146 -0.023292
v 0.088287 -0.035097 0.019344
v -0.067385 -0.037952 0.116367
v -0.107627 0.130240 -0.021180
v -0.072796 0.130763 0.193990
v 0.114407 0.134253 -0.041125
v 0.106919 0.134034 0.131040
v 0.089744 0.133700 0.179389
v -0.080240 0.130785 -0.124953
v 0.029415 0.132796 -0.193296
v 0.039583 0.132765 0.242388
v 0.082301 0.133723 -0.139554
v 0.060814 -0.035537 -0.095624
v -0.014298 -0.037030 0.188979
v -0.021770 -0.037008 -0.131190
v -0.030079 0.131720 -0.187952
v -0.019911 0.131690 0.247732
v 0.049406 -0.035870 0.166665
v 0.042707 -0.035851 -0.120391
v 0.086410 -0.035152 0.062497
v -0.076755 -0.038101 0.077154
v -0.104903 0.130232 0.095561
v 0.117132 0.134245 0.075616
v -0.071253 -0.037940 -0.049365
v 0.075037 -0.035296 -0.062505
v 0.024061 -0.036797 0.126349
v -0.043979 -0.037965 0.004528
v 0.005530 -0.037032 -0.077341
v -0.016492 -0.037525 0.119556
v -0.020705 -0.037513 -0.060990
v -0.031321 -0.037713 -0.043436
v 0.047246 -0.036365 0.097231
v 0.058645 -0.036110 -0.004691
v -0.036826 -0.037874 0.083149
v -0.003437 -0.037294 0.128819
v 0.043806 -0.036355 -0.050184
v 0.032417 -0.036553 -0.065762
v 0.059904 -0.036113 0.049267
v -0.042720 -0.037968 0.058485
v -0.047527 0.149099 0.004882
v -0.040374 0.149189 0.083503
v 0.055097 0.150954 -0.004336
v 0.043698 0.150698 0.097585
v -0.024253 0.149551 -0.060635
v -0.034869 0.149351 -0.043082
v -0.020039 0.149538 0.119911
v 0.001982 0.150032 -0.076986
v 0.020514 0.150266 0.126703
v -0.006984 0.149769 0.129173
v 0.040258 0.150708 -0.049830
v 0.028869 0.150511 -0.065407
v -0.046268 0.149095 0.058840
v 0.056357 0.150950 0.049621
vn 0.0064 -0.9999 0.0140
vn -0.0064 0.9999 -0.0140
vn 0.2003 -0.9726 -0.1179
vn 0.2028 -0.9681 0.1473
vn -0.0078 -0.9790 0.2037
vn -0.0133 -0.9853 -0.1701
vn -0.0161 0.1509 -0.9884
vn -0.0161 0.1457 -0.9892
vn -0.0150 -0.0541 -0.9984
vn -0.0141 -0.1637 -0.9864
vn -0.0141 -0.1629 -0.9865
vn 0.0226 0.9983 0.0546
vn 0.0641 0.9978 0.0170
vn 0.0106 0.9995 0.0283
vn 0.0063 0.9969 0.0782
vn 0.0742 0.9965 -0.0375
vn 0.0308 0.9814 -0.1898
vn -0.0016 0.9753 -0.2207
vn 0.0089 0.9988 -0.0491
vn 0.8880 -0.0184 -0.4595
vn -1.0000 -0.0071 0.0040
vn -0.9712 0.0058 0.2381
vn -0.9711 0.0058 0.2387
vn -0.9957 0.0926 0.0026
vn -0.9952 0.0980 0.0025
vn -0.9848 -0.0068 0.1737
vn -0.9973 -0.0737 0.0049
vn -0.9968 -0.0794 0.0050
vn -0.9725 0.0055 0.2328
vn -0.9697 0.0061 0.2441
vn -0.0062 1.0000 0.0000
vn -0.0202 0.2216 -0.9749
vn -0.9992 0.0389 0.0000
vn 1.0000 -0.0023 -0.0000
vn 0.0190 -0.9693 -0.2450
vn 0.0175 -0.9629 -0.2692
vn 0.0331 -0.9995 0.0000
vn -0.0375 0.4392 -0.8976
vn -0.1219 -0.9669 -0.2240
vn -0.3443 -0.9330 -0.1047
vn -0.2114 -0.9610 -0.1782
vn 0.0517 -0.9790 -0.1970
vn 0.1076 -0.9765 -0.1869
vn 0.1459 -0.9677 0.2056
vn 0.3046 -0.9476 0.0967
vn 0.2239 -0.9624 0.1535
vn -0.0202 -0.9799 0.1983
vn -0.1190 -0.9743 0.1913
vn 0.3806 -0.9239 0.0403
vn 0.3448 -0.9380 -0.0355
vn 0.3248 -0.9428 -0.0754
vn -0.3954 -0.0092 0.9185
vn 0.3952 0.0199 -0.9184
vn 0.3951 -0.0988 -0.9133
vn 0.8898 0.0177 -0.4560
vn 0.8899 0.0177 -0.4558
vn 0.9855 0.0190 -0.1684
vn 0.9855 0.0190 -0.1686
vn -0.9929 -0.0186 -0.1172
vn -0.9915 -0.0190 0.1285
vn -0.9915 -0.0190 0.1287
vn -0.9930 -0.0186 -0.1170
vn -0.9206 -0.0167 -0.3902
vn -0.9204 -0.0167 -0.3905
vn -0.0165 0.9998 -0.0089
vn -0.0179 0.9998 -0.0004
vn -0.0193 0.9998 0.0081
vn -0.0191 0.9998 0.0070
vn -0.0180 0.9998 0.0004
vn -0.9314 -0.0184 0.3636
vn -0.9314 -0.0184 0.3634
vn -0.7440 -0.0154 0.6680
vn -0.7439 -0.0154 0.6681
vn 0.9636 0.0815 0.2547
vn 0.9919 0.0507 0.1168
vn 0.9918 0.0508 0.1170
vn 0.8896 0.0918 0.4475
vn 0.8898 0.0918 0.4471
vn -0.9314 -0.0183 0.3636
vn -0.7115 -0.0122 -0.7026
vn -0.7119 -0.0122 -0.7022
vn -0.5288 -0.0084 -0.8487
vn -0.0206 0.9997 0.0161
vn 0.9066 0.0164 0.4217
vn 0.9526 0.0175 0.3038
vn 0.9525 0.0175 0.3040
vn -0.9915 -0.0191 0.1285
vn -0.9915 -0.0191 0.1287
vn 0.8898 0.0177 -0.4559
vn 0.9967 0.0188 0.0795
vn 0.9967 0.0188 0.0793
vn 0.5288 0.0084 0.8487
vn 0.8923 -0.0601 0.4474
vn 0.8925 -0.0601 0.4470
vn 0.9931 -0.0137 0.1168
vn 0.9930 -0.0137 0.1170
vn 0.9659 -0.0462 0.2547
vn 0.0909 -0.1146 0.9892
vn 0.8071 0.0164 -0.5902
vn 0.3954 0.0092 -0.9185
vn -0.7593 -0.2317 -0.6080
vn -0.8839 -0.2043 -0.4207
vn -0.8639 -0.2103 -0.4577
vn -0.6881 -0.2493 0.6814
vn -0.8193 -0.2249 0.5275
vn -0.8466 -0.2174 0.4858
vn 0.9766 -0.1851 0.1096
vn 0.9752 -0.1861 0.1194
vn 0.9481 -0.1978 0.2492
vn 0.8644 -0.2252 0.4496
vn 0.8809 -0.2215 0.4184
vn -0.0795 -0.3093 -0.9476
vn -0.9868 -0.1603 0.0230
vn -0.9722 -0.1722 0.1588
vn -0.9695 -0.1733 0.1735
vn -0.9782 -0.1692 -0.1206
vn -0.9794 -0.1687 -0.1107
vn 0.0906 -0.3128 0.9455
vn 0.9338 -0.1894 -0.3036
vn 0.8454 -0.2237 -0.4851
vn 0.8226 -0.2297 -0.5202
vn 0.9683 -0.1819 -0.1714
vn 0.9706 -0.1810 -0.1586
vn -0.9346 -0.1816 0.3058
vn 0.6918 -0.2526 -0.6764
vn -0.9519 -0.1742 -0.2521
vn 0.7612 -0.2400 0.6025
vn 0.9852 -0.1698 -0.0230
vn -0.3845 -0.9225 0.0348
vn -0.3483 -0.9327 0.0933
vn -0.4340 -0.8995 -0.0508
vn -0.2951 -0.9395 0.1738
vn 0.0180 -0.9998 -0.0005
vn -0.8728 -0.0175 0.4877
vn -0.5785 -0.0125 0.8156
vn -0.0180 0.9998 0.0005
vn 0.0868 0.1137 0.9897
vn 0.7808 -0.0715 0.6206
vn 0.7778 0.0983 0.6208
vn 0.2854 -0.9465 -0.1504
vn 0.0117 -0.9207 0.3900
vn -0.0228 -0.9729 0.2302
vn -0.9649 0.2441 0.0966
vn -0.9836 0.1802 0.0020
vn -0.9998 0.0213 0.0040
vn -0.9979 0.0428 0.0485
vn -0.0802 0.9942 0.0718
vn -0.1228 0.9914 0.0461
vn -0.1246 0.9895 -0.0736
vn -0.0834 0.9915 -0.0998
vn 1.0000 0.0071 -0.0040
vn 0.0121 -0.1292 0.9915
vn 0.0191 -0.0956 0.9952
vn 0.0182 -0.0998 0.9948
vn 0.4582 0.8888 -0.0142
vn 0.9998 0.0171 -0.0041
vn 0.9999 0.0107 -0.0040
vn 0.9989 -0.0464 -0.0032
vn 0.9988 -0.0488 -0.0032
vn -0.0296 -0.9806 -0.1939
vn 0.0004 -0.9357 -0.3528
vn 0.9876 0.1570 -0.0060
vn 0.9863 0.1647 -0.0061
vn -0.0011 -0.9010 -0.4338
vn 0.0940 -0.9946 0.0449
vn 0.0504 -0.9965 0.0662
vn -0.0347 -0.9975 0.0615
vn -0.0582 -0.9972 0.0472
vn -0.0109 0.9446 -0.3281
vn -0.5744 -0.8184 0.0137
vn 0.0729 0.9941 0.0801
vn 0.1502 0.9878 0.0422
vn 0.0127 -0.8807 0.4735
vn 0.0150 0.0541 0.9984
vn -0.0359 -0.9988 -0.0332
vn 0.0489 -0.9981 -0.0384
vn 0.0928 -0.9955 -0.0177
vn -0.0594 -0.9981 -0.0185
vn 0.0130 0.2777 0.9606
vn 0.0130 0.2822 0.9593
vn 0.0113 -0.0548 0.9984
vn 0.0125 -0.0198 0.9997
vn -0.0163 0.2236 -0.9746
vn -0.0152 -0.0222 -0.9996
vn -0.0147 -0.0990 -0.9950
vn -0.5783 0.8158 -0.0092
vn 0.9917 0.1284 -0.0057
vn 0.9922 0.0692 0.1036
vn 0.9937 0.0815 0.0767
vn 0.9923 0.0698 0.1022
vn 0.0154 -0.9518 0.3062
vn -0.8031 0.4815 0.3511
vn -0.9017 0.2225 0.3706
vn 0.0112 0.0778 0.9969
vn 0.0117 0.1145 0.9933
vn 0.0142 0.3300 0.9439
vn 0.0079 -0.9096 -0.4153
vn -0.9843 0.1762 0.0014
vn 0.1305 0.9910 -0.0293
vn 0.0886 0.9952 -0.0414
vn 0.1065 0.9943 0.0078
vn 0.0415 0.9988 0.0271
vn 0.9596 0.2811 -0.0077
vn -0.0130 0.8651 -0.5014
vn -0.4911 0.2476 -0.8352
vn 0.8423 0.1572 -0.5155
vn -0.8450 -0.0098 0.5346
vn -0.8291 0.2130 0.5169
vn 0.9606 0.0488 0.2738
vn 0.9786 0.0533 0.1988
vn 0.9785 0.0532 0.1991
vn -0.9922 0.0822 0.0939
vn -0.9863 0.1365 0.0921
vn -0.9913 0.0930 0.0935
vn -0.0165 0.3211 -0.9469
vn 0.0713 0.9915 -0.1091
vn 0.1477 0.9864 -0.0721
vn 0.4631 -0.8863 0.0106
vn -0.0672 0.9395 0.3359
vn -0.9942 0.0504 0.0947
vn -0.0132 -0.2633 -0.9646
vn -0.0014 0.9563 0.2922
vn 0.0107 0.4674 0.8840
vn 0.7113 -0.7029 0.0071
vn -0.7017 -0.7123 0.0127
vn 0.0258 -0.0629 0.9977
vn 0.0130 0.2756 0.9612
vn -0.9964 0.0842 0.0027
vn -0.0160 0.1383 -0.9903
vn 0.9893 0.1459 -0.0059
usemtl Material._Gray_metal.002
s 1
f 12//1 102//1 100//1 105//1 31//1 13//1
f 91//2 104//2 101//2 103//2 89//2 99//2
f 93//2 94//2 20//2 90//2 33//2 96//2
f 75//3 77//4 80//5 79//6
f 10//7 98//8 13//9 31//9 91//9 99//9 24//9 34//9 33//9 90//9 25//10 22//11
f 27//12 28//13 6//14 5//15
f 29//16 30//17 8//18 7//19
f 34//20 97//20 96//20 33//20
f 24//21 99//21 89//22 12//23 13//21 98//24 11//25 16//26 15//27 25//28 90//21 20//22 21//23
f 20//22 94//29 95//30 21//23
f 21//1 95//1 92//1 97//1 34//1 24//1
f 46//31 48//31 52//31 50//31
f 50//32 52//32 51//32 49//32
f 45//33 46//33 50//33 49//33
f 48//34 47//34 51//34 52//34
f 47//35 45//36 49//37 51//37
f 5//38 59//38 60//38 27//38
f 94//29 93//21 92//21 95//30
f 93//9 96//9 97//9 92//9
f 103//29 101//21 100//21 102//30
f 101//9 104//9 105//9 100//9
f 31//20 105//20 104//20 91//20
f 89//22 103//29 102//30 12//23
f 122//39 110//40 152//41 170//39 141//39 142//39 166//42 116//43 108//39 123//39
f 109//44 118//44 106//45 150//46 149//44 167//44 146//44 145//47 125//48
f 137//49 131//50 173//51 144//49 143//49 176//49 150//46 106//45
f 116//52 108//52 113//52 120//52 121//52 117//52
f 125//53 109//53 112//53 126//53 124//53
f 125//54 124//54 189//54 180//54 109//54
f 114//55 202//56 194//57 140//58
f 138//57 185//58 188//55 107//56
f 137//59 131//60 133//61 139//62
f 137//59 139//62 111//63 106//64
f 106//63 183//64 179//59 137//62
f 112//65 126//65 114//65 140//65 135//65 136//66 159//67 175//65 158//65 164//65 162//65 168//65 161//65 156//65 174//68 133//69 139//65 111//65 119//65
f 132//70 186//71 181//72 117//73
f 136//74 135//75 205//76 195//77 115//78
f 121//72 198//73 193//79 134//71
f 140//58 194//57 205//76 135//75
f 118//80 119//81 112//82 109//82
f 121//83 134//83 133//69 174//68 157//83 169//83 163//83 160//83 159//67 136//66 115//83 127//83 128//83 113//83 120//83
f 110//84 130//85 136//86 115//84 127//84 122//84
f 137//62 179//59 191//87 131//88
f 107//89 114//56 140//57 138//58
f 139//59 192//62 197//63 111//64
f 138//58 140//57 135//90 129//91
f 122//92 127//92 128//92 113//92 108//92 123//92
f 110//93 184//94 190//95 129//96 130//97
f 109//82 180//82 182//80 118//81
f 116//98 187//98 178//98 123//98 108//98
f 124//99 126//99 114//56 107//89
f 106//64 111//63 119//81 118//80
f 129//91 135//90 136//86 130//85
f 132//71 134//70 133//61 131//60
f 112//100 199//100 203//100 126//100
f 149//101 150//102 161//103 168//101 167//101
f 166//104 169//104 157//105 148//106 147//104
f 172//107 175//108 159//109 160//110 152//111 151//109
f 146//112 167//112 168//112 162//112 145//112
f 144//113 173//114 174//115 156//116 143//117
f 142//118 141//118 163//118 169//118 166//118
f 177//119 165//120 164//121 158//122 153//123
f 155//124 148//106 157//105 174//115 173//114
f 145//125 162//125 164//121 165//120 171//125
f 143//117 156//116 161//103 150//102 176//126
f 170//127 152//111 160//110 163//127 141//127
f 154//128 153//123 158//122 175//108 172//107
f 138//129 153//130 154//131 172//131 151//131 152//41 110//40 130//131 129//131
f 107//132 124//132 125//48 145//47 171//132 165//132 177//132 153//130 138//129
f 178//133 187//133 181//133 186//133 191//133 179//133 183//133 182//133 180//133 189//133 188//133 185//133 190//133 184//133
f 107//56 188//55 189//99 124//99
f 117//134 121//134 134//70 132//71
f 139//59 133//60 204//61 192//62
f 117//73 181//72 187//135 116//135
f 119//80 196//81 199//82 112//82
f 118//81 182//80 183//64 106//63
f 131//88 191//87 186//71 132//70
f 192//136 204//136 193//136 198//136 201//136 200//136 195//136 205//136 194//136 202//136 203//136 199//136 196//136 197//136
f 134//71 193//79 204//61 133//60
f 120//135 201//135 198//73 121//72
f 138//57 129//96 190//95 185//58
f 126//99 203//99 202//56 114//55
f 113//137 128//137 200//137 201//137 120//137
f 111//64 197//63 196//81 119//80
f 122//138 123//138 178//138 184//94 110//93
f 127//139 115//78 195//77 200//139 128//139
f 117//140 116//43 166//42 147//140 148//140 155//140 173//51 131//50 132//140
usemtl Material.006
f 84//141 74//142 80//5 77//4 87//141
f 6//143 7//144 8//144 26//145 14//146
f 14//146 26//145 25//28 15//27
f 85//147 76//148 78//149 88//150
f 63//151 66//151 73//151 68//151
f 53//152 55//152 58//152 57//152 56//153 54//154
f 72//155 37//155 40//155 69//155
f 23//156 19//157 18//158 22//159
f 65//160 81//161 86//161 75//3 79//6
f 10//162 22//159 18//158 9//163
f 71//9 68//9 73//9 78//9
f 87//164 88//164 83//164 84//164
f 63//165 44//166 39//167 70//168
f 43//169 64//169 69//169 40//169
f 74//170 84//170 81//170 65//170
f 82//171 66//172 76//148 85//147
f 85//173 86//173 81//173 82//173
f 63//174 70//174 76//174 66//174
f 79//6 80//5 74//142 65//160
f 28//13 29//16 7//19 6//14
f 38//175 41//176 68//177 71//178
f 41//176 44//166 63//165 68//177
f 11//179 9//180 18//181 36//182 16//174
f 30//183 4//183 23//184 32//185
f 42//186 67//186 64//186 43//186
f 3//187 2//187 1//187 19//157 23//156 4//187
f 27//188 60//189 62//189 56//190
f 16//191 36//191 58//191 55//191
f 5//192 6//143 17//193
f 17//193 14//146 16//26
f 19//194 35//195 36//182 18//181
f 1//196 27//196 35//195 19//194
f 32//197 26//197 45//36 47//35
f 11//25 98//24 72//198 69//198
f 3//199 4//200 30//17 29//16
f 2//201 3//199 29//16 28//13
f 1//202 2//201 28//13 27//12
f 10//162 9//163 64//203 67//203
f 70//21 71//21 78//21 76//21
f 8//18 30//17 48//204 46//204
f 26//205 8//205 46//205 45//205
f 30//206 32//206 47//206 48//206
f 17//193 16//26 55//207 53//208
f 36//209 35//210 57//211 58//209
f 35//210 27//188 56//190 57//211
f 5//212 53//213 54//214
f 67//215 72//215 98//8 10//7
f 83//216 88//150 78//149 73//217
f 87//218 77//4 75//3 86//218
f 60//219 59//219 61//219 62//219
f 54//214 61//220 59//220 5//212
f 26//221 32//185 23//184 22//11 25//10
f 67//222 42//222 37//222 72//222
f 38//175 71//178 70//168 39//167
f 9//180 11//179 69//223 64//223
f 84//224 83//224 82//224 81//224
f 85//225 88//225 87//225 86//225
f 82//171 83//216 73//217 66//172
f 16//26 14//146 15//27
f 53//208 5//192 17//193
f 54//154 56//153 62//226 61//226
f 17//193 6//143 14//146
usemtl Material._black.002
f 40//227 39//227 44//227 43//227
f 39//228 40//228 37//228 38//228
f 38//229 37//229 42//229 41//229
f 41//230 42//230 43//230 44//230
