# Blender v2.92.0 OBJ File: 'uploads_files_975794_Mass+Production+Civilian+(MPC)+unit-01.blend'
# www.blender.org
mtllib rightFoot.mtl
o 4_Toe.R_Cube.030
v 0.383062 1.216014 -0.148831
v -0.383062 1.216014 -0.148831
v -0.383062 0.992016 0.262352
v 0.383062 0.992016 0.262352
v -0.383062 0.047662 0.262352
v -0.383062 0.419491 0.262352
v 0.383062 0.419491 0.262352
v 0.383062 0.047662 0.262352
v -0.383062 0.171727 -0.303753
v -0.383062 0.836223 -0.190296
v 0.383062 0.836223 -0.190296
v 0.383062 0.171726 -0.303753
v -0.383062 1.408748 0.123171
v -0.383062 1.307914 -0.065530
v 0.383062 1.307914 -0.065529
v 0.383062 1.408748 0.123171
v 0.383062 0.074037 0.123171
v 0.383062 0.074037 -0.065530
v 0.383062 0.836223 0.123171
v 0.383062 0.836223 -0.065530
v -0.383062 0.074037 -0.065529
v -0.383062 0.074037 0.123171
v -0.383062 0.836223 -0.065529
v -0.383062 0.836223 0.123171
v 0.425709 1.571180 0.115423
v 0.425709 1.571180 0.270099
v -0.425709 1.571180 0.270099
v -0.425709 0.934915 0.270099
v 0.425709 0.087874 0.270099
v -0.425709 0.087875 0.270099
v 0.425709 0.934915 0.270099
v -0.425709 0.087875 0.115423
v -0.425709 0.934915 0.115423
v -0.425709 1.571180 0.115423
v 0.425709 0.087874 0.115423
v 0.425709 0.934915 0.115423
v 0.383062 1.215878 -0.206355
v -0.383062 1.215878 -0.206355
v -0.383062 0.836087 -0.247820
v 0.383062 0.836087 -0.247820
vn 0.0876 -0.0035 0.9961
vn 0.0085 -0.0127 0.9999
vn 0.1787 0.0000 0.9839
vn 0.0617 0.0000 0.9981
vn 0.0897 0.0000 0.9960
vn -0.0897 0.0000 0.9960
vn -0.1787 0.0000 0.9839
vn -0.0085 -0.0127 0.9999
vn -0.0876 -0.0035 0.9961
vn -0.0617 0.0000 0.9981
vn 0.0000 1.0000 0.0000
vn 1.0000 0.0000 0.0000
vn -1.0000 -0.0000 0.0000
vn 0.0000 0.1683 -0.9857
vn 0.1787 -0.0000 -0.9839
vn 0.0297 -0.0398 -0.9988
vn 0.1098 -0.0186 -0.9938
vn -0.1098 -0.0186 -0.9938
vn -0.0297 -0.0398 -0.9988
vn -0.1787 -0.0000 -0.9839
vn 0.0000 0.6716 -0.7409
vn 0.0000 0.7884 -0.6152
vn 0.0000 0.8820 -0.4713
vn -0.0000 -0.9776 -0.2107
vn 0.0000 0.1085 -0.9941
vn 0.0000 1.0000 -0.0024
vn 0.0000 -1.0000 0.0024
usemtl Material._Gray_metal
s 1
f 3//1 27//2 28//3 30//3 5//4 6//5
f 7//6 31//7 26//8 4//9
f 7//6 4//9 3//1 6//5
f 4//9 26//8 27//2 3//1
f 8//10 7//6 6//5 5//4
f 34//11 27//11 26//11 25//11
f 36//12 25//12 26//12 31//12
f 35//12 36//12 31//12 29//12
f 30//13 28//13 33//13 32//13
f 28//13 27//13 34//13 33//13
f 8//10 29//7 31//7 7//6
usemtl Material.002
f 23//13 14//13 2//13 10//13
f 9//14 10//14 11//14 12//14
f 24//15 33//15 34//16 13//17
f 21//13 23//13 10//13 9//13
f 22//13 24//13 23//13 21//13
f 16//18 25//19 36//20 19//20
f 12//12 11//12 20//12 18//12
f 18//12 20//12 19//12 17//12
f 22//15 32//15 33//15 24//15
f 11//12 1//12 15//12 20//12
f 20//12 15//12 16//12 19//12
f 24//13 13//13 14//13 23//13
f 2//21 14//22 15//22 1//21
f 14//22 13//23 16//23 15//22
f 13//17 34//16 25//19 16//18
f 19//20 36//20 35//20 17//20
f 30//24 32//24 22//24 21//24 9//24 12//24 18//24 17//24 35//24 29//24 8//24 5//24
usemtl Material._black
f 2//13 38//13 39//13 10//13
f 39//25 38//25 37//25 40//25
f 1//26 37//26 38//26 2//26
f 11//12 40//12 37//12 1//12
f 10//27 39//27 40//27 11//27
