# Blender v2.92.0 OBJ File: 'uploads_files_975794_Mass+Production+Civilian+(MPC)+unit-01.blend'
# www.blender.org
mtllib rightArm.mtl
o 3_Upper_Arm.R_Cube.019
v -0.304873 2.738476 -0.296762
v -0.303439 2.724519 -0.075541
v -0.302019 2.710700 0.143496
v -0.300585 2.696743 0.364717
v 0.406271 2.481139 -0.302293
v 0.407705 2.467182 -0.081072
v 0.409125 2.453363 0.137965
v 0.410560 2.439406 0.359186
v -0.295302 0.274416 -0.277192
v -0.294108 0.262795 -0.092995
v -0.292926 0.251288 0.089384
v -0.291732 0.239667 0.273581
v 0.299110 0.030926 -0.281798
v 0.300304 0.019305 -0.097600
v 0.301486 0.007799 0.084779
v 0.302680 -0.003822 0.268976
v 0.390151 2.124067 -0.088936
v -0.361808 1.731989 -0.098817
v 0.361318 0.908239 -0.104306
v 0.346902 0.300325 -0.111991
v 0.345468 0.314282 -0.333212
v 0.359884 0.922196 -0.376367
v -0.357734 1.903793 -0.096646
v 0.388717 2.138023 -0.362476
v -0.323739 2.416498 -0.083405
v -0.359268 1.918726 -0.333236
v -0.352572 1.200670 -0.098775
v -0.366988 0.592757 -0.106460
v -0.365568 0.578937 0.112578
v -0.351152 1.186851 0.120263
v -0.363342 1.746916 -0.335408
v -0.322319 2.402679 0.135633
v -0.368422 0.606713 -0.327681
v -0.354006 1.214627 -0.319996
v -0.221812 1.819644 0.373172
v -0.325173 2.430455 -0.304626
v 0.391571 2.110247 0.130102
v -0.225885 1.647881 0.371000
v 0.362738 0.894420 0.114732
v 0.348322 0.286506 0.107047
v -0.364134 0.564981 0.333799
v -0.349718 1.172894 0.341484
v 0.403201 1.404486 0.129524
v -0.320885 2.388722 0.356854
v 0.349756 0.272549 0.328268
v 0.364172 0.880463 0.335953
v 0.407274 1.576250 0.131695
v 0.393005 2.096291 0.351323
v -0.180635 2.687584 -0.297725
v -0.179201 2.673627 -0.076504
v -0.177781 2.659808 0.142534
v -0.176347 2.645851 0.363755
v -0.191857 0.232041 -0.277994
v -0.190663 0.220420 -0.093797
v -0.189481 0.208914 0.088583
v -0.188286 0.197293 0.272780
v -0.196646 2.337830 0.355891
v 0.408808 1.561323 0.368286
v -0.239895 0.514089 0.332836
v -0.200935 2.379563 -0.357908
v 0.404734 1.389559 0.366115
v -0.229767 1.163736 -0.371798
v -0.244184 0.555822 -0.328643
v 0.377639 1.596452 -0.095606
v 0.373830 1.435847 -0.097636
v 0.376204 1.610370 -0.374555
v 0.372395 1.449756 -0.376389
v -0.336251 1.888898 -0.090075
v -0.340060 1.728255 -0.092106
v -0.338640 1.714436 0.126932
v -0.334831 1.875079 0.128963
v -0.341495 1.742212 -0.313326
v -0.337685 1.902860 -0.311296
v 0.379059 1.582633 0.123432
v 0.375250 1.422028 0.121402
v -0.333397 1.861115 0.350184
v -0.337206 1.700491 0.348153
v 0.376684 1.408071 0.342622
v 0.380493 1.568676 0.344653
v -0.212967 1.649610 0.347191
v -0.209159 1.810216 0.349221
v -0.217257 1.691295 -0.371821
v -0.213448 1.851910 -0.369987
v -0.360290 1.717210 0.135439
v -0.356215 1.889014 0.137611
v -0.354682 1.874080 0.374201
v -0.358755 1.702296 0.372030
v 0.405755 1.591029 -0.102561
v 0.401682 1.419265 -0.104732
v -0.230472 1.692461 -0.397967
v -0.226399 1.864235 -0.396005
v 0.404221 1.605914 -0.400891
v 0.400147 1.434140 -0.402852
vn -0.3788 -0.9238 -0.0558
vn 0.3554 0.9330 0.0566
vn 0.3551 0.9331 0.0566
vn 0.3317 0.9417 0.0573
vn 0.3788 0.9238 0.0558
vn -0.9953 -0.0969 0.0003
vn -0.9764 -0.2160 -0.0073
vn -0.0561 -0.1181 -0.9914
vn -0.0599 -0.1275 -0.9900
vn -0.0756 -0.1660 -0.9832
vn -0.9956 -0.0942 0.0005
vn -0.9963 -0.0863 0.0010
vn -0.0355 -0.1055 0.9938
vn -0.0229 -0.0748 0.9969
vn -0.0732 -0.1973 0.9776
vn 0.9955 -0.0942 -0.0124
vn 0.9957 -0.0919 -0.0123
vn 0.9863 -0.1644 -0.0168
vn 0.9987 -0.0509 -0.0097
vn 0.9993 -0.0369 -0.0088
vn 0.9993 -0.0372 -0.0088
vn 0.9997 -0.0236 -0.0080
vn -0.0021 -0.0248 0.9997
vn -0.0026 -0.0253 0.9997
vn -0.0006 -0.0204 0.9998
vn 0.0003 -0.0186 0.9998
vn -0.0429 -0.1235 0.9914
vn 0.0025 -0.0127 0.9999
vn -0.9990 0.0446 0.0093
vn -0.9989 0.0451 0.0093
vn -0.9997 0.0236 0.0080
vn -0.9978 0.0655 0.0106
vn -0.9990 0.0440 0.0093
vn -0.4004 0.0153 -0.9162
vn -0.2531 0.0096 -0.9674
vn -0.1938 -0.0075 -0.9810
vn -0.3915 0.0174 -0.9200
vn 0.9987 -0.0505 -0.0091
vn 0.9993 -0.0371 -0.0082
vn 0.9997 -0.0237 -0.0064
vn 0.9997 -0.0236 -0.0072
vn 0.9997 -0.0237 -0.0074
vn 0.9997 -0.0238 -0.0068
vn 0.9955 -0.0943 -0.0122
vn -0.0736 0.1441 -0.9868
vn 0.0602 0.1781 -0.9822
vn 0.0245 0.0836 -0.9962
vn -0.1404 0.0915 -0.9859
vn 0.0016 0.0228 -0.9997
vn -0.1582 0.0245 -0.9871
vn -0.0254 -0.0430 -0.9988
vn 0.9987 -0.0502 -0.0086
vn 0.9993 -0.0365 -0.0075
vn -0.0077 0.0001 -1.0000
vn 0.9963 -0.0858 -0.0114
vn -0.0776 -0.0951 -0.9924
vn -0.2607 0.0829 -0.9618
vn -0.4019 0.0258 -0.9153
vn -0.1650 0.1190 -0.9791
vn 0.0010 -0.0171 0.9999
vn -0.0014 -0.0241 0.9997
vn 0.3557 0.9329 0.0566
vn 0.5590 0.8277 0.0486
vn -0.4433 -0.8811 -0.1650
vn -0.4614 -0.8762 -0.1395
vn -0.3673 -0.8918 -0.2641
vn 0.2889 0.9460 0.1472
vn 0.2841 0.9483 0.1417
vn 0.4194 0.8833 0.2097
vn 0.4015 0.8888 0.2212
vn -0.2316 -0.9726 0.0219
vn -0.2594 -0.9644 0.0513
vn -0.3460 -0.9287 0.1335
vn -0.3534 -0.9253 0.1374
vn 0.3730 0.9135 -0.1626
vn 0.2817 0.9587 -0.0392
vn 0.2943 0.9541 -0.0558
vn -0.2702 -0.9473 -0.1722
vn -0.2593 -0.9521 -0.1620
vn 0.4752 0.8783 -0.0529
vn 0.4697 0.8808 -0.0592
vn 0.4979 0.8574 0.1302
vn 0.5094 0.8527 0.1155
vn -0.5204 -0.8525 -0.0504
vn 0.9997 -0.0236 -0.0064
vn -0.1505 -0.9867 -0.0613
vn -0.4592 -0.8873 0.0420
vn -0.4464 -0.8929 0.0588
vn 0.2034 0.9772 0.0603
vn 0.2018 0.9780 0.0532
vn 0.2022 0.9778 0.0549
vn -0.5196 -0.8532 -0.0458
vn -0.5194 -0.8534 -0.0446
vn 0.9997 -0.0236 -0.0071
vn -0.2640 0.0176 -0.9644
vn -0.1687 0.0155 -0.9855
vn -0.4195 0.0209 -0.9075
vn 0.9997 -0.0236 -0.0063
vn -0.0030 0.0115 -0.9999
usemtl Material._Gray_metal
s 1
f 11//1 55//1 15//1 16//1 56//1 12//1
usemtl Material.002
f 51//2 52//3 8//4 7//4
f 53//1 13//1 14//1 54//1
f 54//1 14//1 15//1 55//1
f 2//5 3//5 4//5 52//3 51//2 50//2
f 29//6 28//6 10//7 11//7
f 63//8 21//9 13//10 53//10
f 41//11 29//6 11//7 12//7
f 28//6 33//12 9//7 10//7
f 59//13 41//14 12//15 56//15
f 40//16 45//17 16//18 15//18
f 7//19 8//19 48//20 37//21
f 75//22 78//22 46//22 39//22
f 39//22 46//22 45//17 40//16
f 52//23 4//24 44//25 57//26
f 59//13 45//27 46//28 78//28 80//28 77//28 42//28 41//14
f 57//26 44//25 76//28 81//28
f 25//29 36//30 73//31 68//31
f 27//31 34//31 33//12 28//6
f 4//32 3//32 32//29 44//33
f 72//34 82//35 62//36 34//37
f 44//33 32//29 71//31 76//31
f 6//38 7//19 37//21 17//39
f 67//40 65//41 19//42 22//43
f 19//42 39//22 40//16 20//44
f 49//45 5//46 24//47 60//48
f 32//29 25//29 68//31 71//31
f 60//48 24//47 66//49 83//50
f 62//36 22//51 21//9 63//8
f 69//31 72//31 34//31 27//31
f 5//52 6//38 17//39 24//53
f 65//41 75//22 39//22 19//42
f 82//35 67//54 22//51 62//36
f 22//43 19//42 20//44 21//55
f 34//37 62//36 33//56
f 36//57 60//48 83//50 73//58
f 1//59 49//45 60//48 36//57
f 48//60 57//26 81//28 79//28
f 8//61 52//23 57//26 48//60
f 45//27 59//13 56//15 16//15
f 33//56 63//8 53//10 9//10
f 10//1 54//1 55//1 11//1
f 9//1 53//1 54//1 10//1
f 77//31 70//31 30//31 29//6 41//11 42//31
f 1//5 2//5 50//2 49//62
f 14//18 13//18 21//55 20//44 40//16 15//18
f 6//4 5//4 49//62 50//2 51//2 7//4
f 3//32 2//32 1//32 36//30 25//29 32//29
f 68//63 23//63 85//63 71//63
f 78//64 61//65 38//66 80//66
f 66//67 92//68 91//69 83//70
f 72//71 31//72 90//73 82//74
f 81//75 35//75 58//76 79//77
f 80//66 38//66 87//78 77//79
f 71//63 85//63 86//80 76//81
f 83//70 91//69 26//82 73//83
f 76//81 86//80 35//75 81//75
f 75//84 43//84 61//65 78//64
f 24//53 17//39 64//41 66//85
f 70//86 77//79 87//78 84//86 18//86 31//72 72//71 69//86
f 82//74 90//73 93//87 67//88
f 74//89 47//89 88//90 64//91
f 73//83 26//82 23//63 68//63
f 64//91 88//90 92//68 66//67
f 79//77 58//76 47//89 74//89
f 65//92 89//93 43//84 75//84
f 30//31 70//31 69//31 27//31 28//6 29//6
f 67//88 93//87 89//93 65//92
f 74//22 64//41 17//39 37//21 48//20 79//22
f 33//56 62//36 63//8
usemtl Material._black
f 58//22 61//22 43//22 47//22
f 35//28 38//28 61//28 58//28
f 26//31 31//31 18//31 23//31
f 85//31 84//31 87//31 86//31
f 47//22 43//22 89//41 88//94
f 91//95 90//96 31//97 26//97
f 23//31 18//31 84//31 85//31
f 88//94 89//41 93//98 92//98
f 86//28 87//28 38//28 35//28
f 92//99 93//99 90//96 91//95
