# Blender v2.92.0 OBJ File: 'uploads_files_975794_Mass+Production+Civilian+(MPC)+unit-01.blend'
# www.blender.org
mtllib rightForeArm.mtl
o 3_Forearm.R_Cube.021
v 0.320618 1.979799 0.306088
v 0.319021 1.974043 0.095215
v 0.317439 1.968343 -0.113578
v 0.315842 1.962587 -0.324451
v -0.208148 1.965302 0.310647
v -0.343987 2.004835 0.100487
v -0.345569 1.999135 -0.108305
v -0.354765 1.958812 -0.319179
v 0.342232 0.573015 0.360546
v 0.337222 0.554959 -0.300934
v -0.361282 0.569054 0.366077
v -0.365953 0.641050 -0.163779
v -0.366968 0.637392 -0.297801
v -0.407027 1.662051 0.124415
v -0.369489 1.397840 0.121679
v -0.367813 1.403879 0.342900
v -0.347222 1.655885 0.365412
v 0.335700 1.407840 0.337368
v 0.361202 1.672944 0.359386
v -0.368967 1.025993 -0.174752
v -0.368157 0.922543 -0.171880
v 0.330690 1.389784 -0.324111
v 0.355744 1.653274 -0.361226
v -0.369170 0.918893 -0.305616
v -0.372824 1.385823 -0.318580
v -0.410659 1.648959 -0.355200
v 0.153503 1.969765 0.307719
v 0.195585 1.996561 0.087986
v 0.194133 1.991329 -0.103673
v 0.199136 1.961930 -0.323534
v 0.127329 0.640175 -0.301687
v 0.222367 1.652523 -0.360177
v 0.124034 1.025124 -0.312373
v 0.124843 0.921674 -0.309501
v 0.177432 1.683270 0.360435
v 0.213268 1.407151 0.338331
v -0.401955 0.488603 -0.326589
v -0.416985 0.310787 -0.339220
v -0.411158 0.331787 0.430074
v -0.396422 0.508544 0.403947
v 0.401193 0.315394 -0.345652
v 0.375003 0.492977 -0.332698
v 0.380537 0.512918 0.397839
v 0.407020 0.336393 0.423641
v -0.215145 1.686691 -0.402623
v -0.207200 1.893034 -0.379355
v 0.150243 1.698560 -0.405838
v 0.150599 1.895048 -0.382168
v -0.215145 1.686691 -0.432884
v -0.207200 1.893034 -0.409616
v 0.150243 1.698560 -0.436099
v 0.150599 1.895048 -0.412429
v -0.221142 1.668591 0.464286
v -0.180928 1.932847 0.484516
v -0.243193 1.468584 0.447802
v 0.130582 1.955630 0.481327
v 0.131252 1.678620 0.460642
v 0.135000 1.482171 0.455316
v -0.186252 2.220801 0.378020
v 0.122923 2.244176 0.373665
v -0.165676 2.141850 0.491273
v 0.110178 2.165078 0.488178
v 0.388960 0.333023 0.404553
v 0.363804 0.500698 0.380044
v 0.304147 0.098076 0.325287
v 0.390106 0.186507 0.408620
v 0.358548 0.481757 -0.313868
v 0.383425 0.313076 -0.326173
v -0.374203 0.496543 0.385846
v -0.388200 0.328647 0.410663
v -0.393735 0.308701 -0.320062
v -0.379459 0.477601 -0.308065
v 0.384572 0.166560 -0.322105
v 0.299921 0.082846 -0.232667
v -0.301064 0.094669 0.330045
v -0.387053 0.182131 0.414731
v -0.305290 0.079438 -0.227909
v -0.392588 0.162185 -0.315995
v 0.249809 0.101718 0.325696
v 0.245582 0.086482 -0.232442
v 0.317732 0.089046 0.340191
v 0.408227 0.182144 0.427923
v 0.402400 0.161144 -0.341370
v 0.313282 0.073012 -0.247212
v -0.409951 0.177538 0.434356
v -0.319423 0.085459 0.345201
v -0.323872 0.069425 -0.242202
v -0.415778 0.156538 -0.334937
v -0.366801 0.749480 -0.166789
v -0.369980 1.022343 -0.308488
v 0.126481 0.748605 -0.304698
v -0.394104 0.918075 -0.330286
v -0.394914 1.021525 -0.333158
v -0.393901 1.025175 -0.199421
v -0.393091 0.921725 -0.196549
v 0.099100 1.024306 -0.337042
v 0.099909 0.920856 -0.334170
v -0.366292 0.550998 -0.295402
v -0.367816 0.745822 -0.300811
v -0.396784 0.636414 -0.327301
v -0.397632 0.744844 -0.330311
v -0.395769 0.640072 -0.193279
v -0.396617 0.748502 -0.196289
v 0.096665 0.747626 -0.334198
v 0.097513 0.639197 -0.331187
v -0.061680 -0.043441 -0.043407
v 0.084954 -0.040874 -0.050155
v 0.019743 -0.042185 0.131165
v 0.010246 -0.042152 -0.077312
v 0.091669 -0.040897 0.097260
v -0.067624 0.260762 -0.043111
v 0.004303 0.262051 -0.077016
v 0.013800 0.262018 0.131461
v 0.079011 0.263329 -0.049859
v 0.085726 0.263306 0.097556
v -0.007255 -0.042655 0.128848
v -0.032736 -0.043091 0.119585
v -0.040961 -0.043062 -0.060961
v -0.046904 0.261141 -0.060665
v -0.013198 0.261549 0.129144
v -0.038680 0.261112 0.119881
v 0.070950 -0.041276 0.114813
v 0.046417 -0.041715 0.126378
v 0.062726 -0.041247 -0.065732
v 0.037244 -0.041683 -0.074995
v 0.056782 0.262956 -0.065436
v 0.065006 0.262927 0.115109
v 0.040474 0.262488 0.126674
v 0.116377 -0.040420 0.049296
v 0.107164 -0.040605 0.074913
v -0.083930 -0.043926 0.058514
v -0.072426 -0.043749 0.083178
v -0.089873 0.260277 0.058810
v -0.078369 0.260454 0.083474
v 0.110433 0.263783 0.049592
v 0.101220 0.263598 0.075209
v -0.086388 -0.043917 0.004557
v 0.113918 -0.040411 -0.004662
v -0.092331 0.260285 0.004853
v 0.107975 0.263792 -0.004366
v 0.057466 -0.070603 0.185052
v 0.015055 -0.071351 0.192663
v -0.153685 -0.074106 -0.008635
v -0.157348 -0.074211 0.034518
v 0.042881 -0.070553 -0.135117
v -0.000044 -0.071300 -0.138801
v -0.068383 -0.072791 0.174252
v -0.103725 -0.073384 0.149486
v -0.081459 -0.072746 -0.112804
v -0.114402 -0.073348 -0.084895
v 0.154048 -0.068839 0.103226
v 0.129413 -0.069303 0.138756
v 0.164788 -0.068531 -0.023292
v 0.172360 -0.068439 0.019344
v -0.131487 -0.073838 0.116367
v -0.210208 0.253740 -0.021180
v -0.142223 0.254721 0.193990
v 0.223168 0.261326 -0.041125
v 0.208553 0.260907 0.131040
v 0.175030 0.260275 0.179389
v -0.156752 0.254773 -0.124953
v 0.057277 0.258575 -0.193296
v 0.077124 0.258506 0.242388
v 0.160501 0.260326 -0.139554
v 0.118737 -0.069266 -0.095624
v -0.027869 -0.072097 0.188979
v -0.042454 -0.072048 -0.131190
v -0.058846 0.256542 -0.187952
v -0.038999 0.256473 0.247732
v 0.096471 -0.069905 0.166665
v 0.083394 -0.069860 -0.120391
v 0.168696 -0.068544 0.062497
v -0.149776 -0.074119 0.077154
v -0.204889 0.253722 0.095561
v 0.228486 0.261308 0.075616
v -0.139036 -0.073811 -0.049365
v 0.146498 -0.068813 -0.062505
v 0.047002 -0.071684 0.126349
v -0.085802 -0.073887 0.004528
v 0.010832 -0.072121 -0.077341
v -0.032151 -0.073059 0.119556
v -0.040375 -0.073031 -0.060990
v -0.061095 -0.073409 -0.043436
v 0.092255 -0.070866 0.097231
v 0.114504 -0.070380 -0.004691
v -0.071841 -0.073718 0.083149
v -0.006669 -0.072623 0.128819
v 0.085540 -0.070842 -0.050184
v 0.063311 -0.071216 -0.065762
v 0.116962 -0.070388 0.049267
v -0.083344 -0.073895 0.058485
v -0.092919 0.290403 0.004882
v -0.078958 0.290572 0.083503
v 0.107387 0.293910 -0.004336
v 0.085138 0.293424 0.097585
v -0.047493 0.291259 -0.060635
v -0.068212 0.290880 -0.043082
v -0.039268 0.291230 0.119911
v 0.003714 0.292169 -0.076986
v 0.039885 0.292606 0.126703
v -0.013787 0.291667 0.129173
v 0.078422 0.293447 -0.049830
v 0.056194 0.293074 -0.065407
v -0.090461 0.290395 0.058840
v 0.109845 0.293901 0.049621
vn 0.0058 -0.9996 0.0272
vn -0.0058 0.9996 -0.0272
vn -0.0058 0.9996 -0.0273
vn 0.2817 -0.9592 0.0240
vn 0.2816 -0.9592 0.0241
vn -0.0268 -0.9993 0.0275
vn -0.0083 0.0803 -0.9967
vn -0.0083 0.0776 -0.9970
vn -0.0077 -0.0278 -0.9996
vn -0.0074 -0.0858 -0.9963
vn -0.0074 -0.0851 -0.9963
vn 0.0221 0.9939 0.1083
vn 0.0639 0.9974 0.0329
vn 0.0116 0.9990 0.0437
vn 0.0068 0.9885 0.1510
vn 0.0732 0.9946 -0.0737
vn 0.0474 0.9917 -0.1195
vn 0.0043 0.9871 -0.1598
vn 0.0094 0.9954 -0.0952
vn 0.7035 -0.0142 -0.7106
vn -0.9999 -0.0076 0.0078
vn -0.9959 0.0900 0.0051
vn -0.9958 0.0910 0.0051
vn -0.9973 -0.0282 0.0673
vn -0.9972 -0.0744 0.0096
vn -0.9970 -0.0766 0.0096
vn -0.7035 0.0142 0.7106
vn -0.0056 1.0000 0.0000
vn -0.0105 0.1159 -0.9932
vn -0.9993 0.0385 0.0000
vn 1.0000 -0.0018 -0.0000
vn 0.0325 -0.9995 0.0000
vn -0.0206 0.2436 -0.9697
vn -0.1144 -0.9056 -0.4085
vn -0.2889 -0.9238 -0.2514
vn -0.2699 -0.9243 -0.2699
vn 0.0975 -0.9320 -0.3490
vn 0.0696 -0.9312 -0.3579
vn 0.1372 -0.9153 0.3787
vn 0.2622 -0.9363 0.2337
vn 0.2687 -0.9365 0.2255
vn -0.0571 -0.9303 0.3622
vn -0.0898 -0.9294 0.3581
vn 0.3786 -0.9222 0.0783
vn 0.3341 -0.9370 -0.1016
vn 0.3343 -0.9370 -0.1011
vn -0.2154 -0.0052 0.9765
vn 0.2153 0.0110 -0.9765
vn 0.4021 0.0117 -0.9155
vn 0.4025 0.0117 -0.9154
vn 0.2160 -0.0540 -0.9749
vn 0.4026 -0.0215 -0.9151
vn 0.4031 -0.0214 -0.9149
vn 0.7225 0.0148 -0.6912
vn 0.7223 0.0148 -0.6914
vn 0.9533 0.0189 -0.3016
vn 0.9533 0.0189 -0.3014
vn -0.9768 -0.0189 -0.2135
vn -0.9709 -0.0192 0.2387
vn -0.9709 -0.0192 0.2386
vn -0.9768 -0.0189 -0.2134
vn -0.7826 -0.0147 -0.6223
vn -0.7824 -0.0147 -0.6226
vn -0.0159 0.9997 -0.0173
vn -0.0180 0.9998 0.0070
vn -0.0180 0.9998 0.0071
vn -0.0179 0.9998 0.0061
vn -0.8065 -0.0163 0.5911
vn -0.8063 -0.0163 0.5913
vn -0.5185 -0.0110 0.8550
vn -0.5188 -0.0110 0.8548
vn 0.8861 0.0756 0.4572
vn 0.7374 0.0746 0.6713
vn 0.7377 0.0746 0.6710
vn 0.9988 0.0196 -0.0455
vn -0.4843 -0.0086 -0.8748
vn -0.4847 -0.0086 -0.8746
vn -0.3041 -0.0050 -0.9526
vn -0.0201 0.9993 0.0314
vn 0.7403 0.0138 0.6721
vn 0.8570 0.0162 0.5151
vn 0.8569 0.0162 0.5153
vn 0.9886 0.0192 0.1494
vn 0.9886 0.0192 0.1493
vn 0.3041 0.0050 0.9526
vn 0.7397 -0.0473 0.6713
vn 0.7400 -0.0473 0.6710
vn 0.8884 -0.0421 0.4572
vn -0.1505 -0.0341 0.9880
vn -0.1500 -0.0341 0.9881
vn 0.0469 -0.0593 0.9971
vn 0.2154 0.0052 -0.9765
vn 0.4021 0.0087 -0.9155
vn 0.4025 0.0088 -0.9154
vn -0.5318 -0.1629 -0.8311
vn -0.7302 -0.1677 -0.6623
vn -0.7267 -0.1677 -0.6662
vn -0.2936 -0.1697 -0.9407
vn -0.3005 -0.1697 -0.9386
vn -0.2131 -0.1718 0.9618
vn -0.2059 -0.1718 0.9634
vn -0.6625 -0.1693 0.7297
vn -0.6667 -0.1692 0.7259
vn -0.4533 -0.1648 0.8760
vn 0.9607 -0.1819 0.2095
vn 0.9606 -0.1820 0.2102
vn 0.8748 -0.1825 0.4488
vn 0.7321 -0.1818 0.6565
vn 0.7276 -0.1816 0.6615
vn -0.0425 -0.1651 -0.9854
vn 0.2182 -0.1719 -0.9606
vn 0.2113 -0.1719 -0.9622
vn -0.9859 -0.1611 0.0449
vn -0.9402 -0.1673 0.2967
vn -0.9395 -0.1673 0.2990
vn -0.9630 -0.1667 -0.2120
vn -0.9633 -0.1667 -0.2103
vn 0.0482 -0.1673 0.9847
vn 0.2987 -0.1739 0.9384
vn 0.3052 -0.1739 0.9363
vn 0.8322 -0.1687 -0.5281
vn 0.6650 -0.1737 -0.7263
vn 0.6688 -0.1737 -0.7229
vn 0.9393 -0.1749 -0.2952
vn 0.9387 -0.1749 -0.2971
vn -0.8316 -0.1624 0.5311
vn 0.4575 -0.1672 -0.8733
vn -0.8767 -0.1613 -0.4532
vn 0.5355 -0.1690 0.8275
vn 0.9845 -0.1696 -0.0449
vn -0.3687 -0.9229 0.1112
vn -0.3647 -0.9230 0.1225
vn -0.4319 -0.8965 -0.0986
vn -0.2832 -0.9023 0.3251
vn 0.0175 -0.9998 -0.0010
vn -0.6758 -0.0139 0.7370
vn -0.0175 0.9998 0.0010
vn -0.1511 0.0262 0.9882
vn -0.1516 0.0261 0.9881
vn 0.0449 0.0588 0.9973
vn 0.5411 -0.0494 0.8395
vn 0.5390 0.0685 0.8395
vn 0.2758 -0.9183 -0.2841
vn 0.0093 -0.7714 0.6363
vn -0.9405 0.2629 0.2155
vn -0.9836 0.1801 0.0039
vn -0.9998 0.0182 0.0078
vn -0.9934 0.0521 0.1020
vn -0.1236 0.9885 0.0872
vn -0.1080 0.9886 0.1054
vn -0.1100 0.9813 -0.1579
vn -0.1255 0.9823 -0.1391
vn 0.9999 0.0076 -0.0078
vn 0.0062 -0.0667 0.9978
vn 0.0098 -0.0493 0.9987
vn 0.0093 -0.0515 0.9986
vn 0.4575 0.8888 -0.0277
vn 0.9998 0.0158 -0.0080
vn 0.9998 0.0157 -0.0080
vn 0.9989 -0.0457 -0.0063
vn -0.0001 -0.8060 -0.5919
vn 0.9880 0.1542 -0.0117
vn 0.9877 0.1557 -0.0117
vn -0.0013 -0.7295 -0.6840
vn 0.0836 -0.9919 0.0961
vn 0.0789 -0.9918 0.1005
vn -0.0596 -0.9941 0.0904
vn -0.0506 -0.9936 0.1008
vn -0.0091 0.8283 -0.5603
vn -0.5736 -0.8187 0.0267
vn 0.1256 0.9865 0.1051
vn 0.1336 0.9862 0.0975
vn 0.0096 -0.6907 0.7231
vn 0.0077 0.0278 0.9996
vn -0.0666 -0.9974 0.0277
vn -0.0606 -0.9975 -0.0351
vn 0.0778 -0.9958 -0.0475
vn 0.0824 -0.9957 -0.0432
vn -0.0517 -0.9976 -0.0459
vn 0.0069 0.1522 0.9883
vn 0.0069 0.1554 0.9878
vn 0.0058 -0.0284 0.9996
vn 0.0064 -0.0104 0.9999
vn -0.0085 0.1170 -0.9931
vn -0.0078 -0.0120 -0.9999
vn -0.0076 -0.0514 -0.9986
vn -0.5772 0.8164 -0.0179
vn 0.9916 0.1292 -0.0110
vn 0.9780 0.0694 0.1969
vn 0.9856 0.0815 0.1484
vn 0.9776 0.0688 0.1991
vn 0.0133 -0.8474 0.5308
vn -0.6961 0.4164 0.5849
vn -0.8106 0.1762 0.5585
vn 0.0058 0.0417 0.9991
vn 0.0061 0.0617 0.9981
vn 0.0077 0.1767 0.9842
vn 0.0061 -0.7473 -0.6644
vn -0.9844 0.1761 0.0026
vn 0.1328 0.9896 -0.0556
vn 0.0887 0.9928 -0.0803
vn 0.1091 0.9939 0.0138
vn 0.0419 0.9977 0.0527
vn 0.9593 0.2821 -0.0150
vn -0.0096 0.6631 -0.7484
vn -0.2854 0.1441 -0.9475
vn 0.6373 0.1196 -0.7612
vn -0.6293 -0.0077 0.7771
vn -0.6235 0.1981 0.7563
vn 0.8730 0.0449 0.4857
vn 0.9289 0.0512 0.3667
vn 0.9279 0.0511 0.3692
vn -0.9801 0.0822 0.1809
vn -0.9748 0.1347 0.1778
vn -0.9790 0.0952 0.1802
vn -0.0087 0.1715 -0.9851
vn 0.1237 0.9792 -0.1608
vn 0.1316 0.9793 -0.1535
vn 0.4619 -0.8867 0.0207
vn -0.0580 0.8193 0.5705
vn -0.9819 0.0494 0.1826
vn -0.0070 -0.1388 -0.9903
vn -0.0008 0.8594 0.5114
vn 0.0061 0.2620 0.9650
vn 0.7104 -0.7036 0.0138
vn -0.7008 -0.7130 0.0248
vn 0.0132 -0.0323 0.9994
vn 0.0070 0.1456 0.9893
vn -0.9965 0.0839 0.0053
vn -0.0082 0.0715 -0.9974
vn 0.9891 0.1467 -0.0115
usemtl Material._Gray_metal
s 1
f 12//1 102//1 100//1 105//1 31//1 13//1
f 91//2 104//2 101//2 103//2 89//2 99//2
f 93//3 94//3 20//3 90//3 33//3 96//3
f 75//4 77//5 80//6 79//6
f 10//7 98//8 13//9 31//9 91//9 99//9 24//9 34//9 33//9 90//9 25//10 22//11
f 27//12 28//13 6//14 5//15
f 29//16 30//17 8//18 7//19
f 34//20 97//20 96//20 33//20
f 24//21 99//21 89//21 12//21 13//21 98//22 11//23 16//24 15//25 25//26 90//21 20//21 21//21
f 20//27 94//27 95//27 21//27
f 21//1 95//1 92//1 97//1 34//1 24//1
f 46//28 48//28 52//28 50//28
f 50//29 52//29 51//29 49//29
f 45//30 46//30 50//30 49//30
f 48//31 47//31 51//31 52//31
f 47//32 45//32 49//32 51//32
f 5//33 59//33 60//33 27//33
f 94//21 93//21 92//21 95//21
f 93//9 96//9 97//9 92//9
f 103//21 101//21 100//21 102//21
f 101//9 104//9 105//9 100//9
f 31//20 105//20 104//20 91//20
f 89//27 103//27 102//27 12//27
f 122//34 110//35 152//36 170//34 141//34 142//34 166//37 116//38 108//34 123//34
f 109//39 118//39 106//40 150//41 149//39 167//39 146//39 145//42 125//43
f 137//44 131//45 173//46 144//44 143//44 176//44 150//41 106//40
f 116//47 108//47 113//47 120//47 121//47 117//47
f 125//48 109//48 112//48 126//49 124//50
f 125//51 124//52 189//53 180//51 109//51
f 114//54 202//55 194//56 140//57
f 138//56 185//57 188//54 107//55
f 137//58 131//59 133//60 139//61
f 137//58 139//61 111//62 106//63
f 106//62 183//63 179//58 137//61
f 112//64 126//64 114//64 140//64 135//64 136//65 159//66 175//64 158//64 164//64 162//64 168//64 161//64 156//64 174//66 133//67 139//64 111//64 119//64
f 132//68 186//69 181//70 117//71
f 136//72 135//72 205//72 195//73 115//74
f 121//70 198//71 193//68 134//69
f 140//57 194//56 205//75 135//75
f 118//76 119//77 112//78 109//78
f 121//79 134//79 133//67 174//66 157//79 169//79 163//79 160//79 159//66 136//65 115//79 127//79 128//79 113//79 120//79
f 110//80 130//81 136//82 115//80 127//80 122//80
f 137//61 179//58 191//59 131//60
f 107//54 114//55 140//56 138//57
f 139//58 192//61 197//62 111//63
f 138//57 140//56 135//83 129//84
f 122//85 127//85 128//85 113//85 108//85 123//85
f 110//86 184//87 190//88 129//88 130//88
f 109//78 180//78 182//76 118//77
f 116//89 187//90 178//91 123//91 108//91
f 124//50 126//49 114//55 107//54
f 106//63 111//62 119//77 118//76
f 129//84 135//83 136//82 130//81
f 132//69 134//68 133//60 131//59
f 112//92 199//92 203//93 126//94
f 149//95 150//96 161//97 168//98 167//99
f 166//100 169//101 157//102 148//103 147//104
f 172//105 175//106 159//107 160//108 152//109 151//107
f 146//110 167//99 168//98 162//111 145//112
f 144//113 173//114 174//115 156//116 143//117
f 142//118 141//119 163//120 169//101 166//100
f 177//121 165//122 164//123 158//124 153//125
f 155//126 148//103 157//102 174//115 173//114
f 145//112 162//111 164//123 165//122 171//127
f 143//117 156//116 161//97 150//96 176//128
f 170//129 152//109 160//108 163//120 141//119
f 154//130 153//125 158//124 175//106 172//105
f 138//131 153//132 154//133 172//133 151//133 152//36 110//35 130//133 129//133
f 107//134 124//134 125//43 145//42 171//134 165//134 177//134 153//132 138//131
f 178//135 187//135 181//135 186//135 191//135 179//135 183//135 182//135 180//135 189//135 188//135 185//135 190//135 184//135
f 107//55 188//54 189//53 124//52
f 117//136 121//136 134//68 132//69
f 139//58 133//59 204//60 192//61
f 117//71 181//70 187//90 116//89
f 119//76 196//77 199//78 112//78
f 118//77 182//76 183//63 106//62
f 131//60 191//59 186//69 132//68
f 192//137 204//137 193//137 198//137 201//137 200//137 195//137 205//137 194//137 202//137 203//137 199//137 196//137 197//137
f 134//69 193//68 204//60 133//59
f 120//138 201//139 198//71 121//70
f 138//56 129//75 190//75 185//57
f 126//94 203//93 202//55 114//54
f 113//140 128//140 200//140 201//139 120//138
f 111//63 197//62 196//77 119//76
f 122//141 123//141 178//141 184//87 110//86
f 127//142 115//74 195//73 200//142 128//142
f 117//143 116//38 166//37 147//143 148//143 155//143 173//46 131//45 132//143
usemtl Material.002
f 84//144 74//144 80//144 77//144 87//144
f 6//145 7//146 8//146 26//147 14//148
f 14//148 26//147 25//26 15//25
f 85//149 76//150 78//151 88//152
f 63//153 66//153 73//153 68//153
f 53//154 55//154 58//154 57//154 56//155 54//156
f 72//157 37//157 40//157 69//157
f 23//158 19//159 18//160 22//160
f 65//161 81//161 86//161 75//161 79//161
f 10//162 22//160 18//160 9//163
f 71//9 68//9 73//9 78//9
f 87//164 88//164 83//164 84//164
f 63//165 44//166 39//167 70//168
f 43//169 64//169 69//169 40//169
f 74//170 84//170 81//170 65//170
f 82//171 66//172 76//150 85//149
f 85//173 86//173 81//173 82//173
f 63//174 70//174 76//174 66//174
f 79//6 80//6 74//175 65//175
f 28//13 29//16 7//19 6//14
f 38//176 41//177 68//178 71//179
f 41//177 44//166 63//165 68//178
f 11//180 9//181 18//182 36//183 16//174
f 30//184 4//184 23//185 32//186
f 42//187 67//187 64//187 43//187
f 3//188 2//188 1//188 19//159 23//158 4//188
f 27//189 60//190 62//190 56//191
f 16//192 36//192 58//192 55//192
f 5//193 6//145 17//194
f 17//194 14//148 16//24
f 19//195 35//196 36//183 18//182
f 1//197 27//197 35//196 19//195
f 32//198 26//198 45//198 47//198
f 11//23 98//22 72//199 69//199
f 3//200 4//201 30//17 29//16
f 2//202 3//200 29//16 28//13
f 1//203 2//202 28//13 27//12
f 10//162 9//163 64//204 67//204
f 70//21 71//21 78//21 76//21
f 8//205 30//205 48//205 46//205
f 26//206 8//206 46//206 45//206
f 30//207 32//207 47//207 48//207
f 17//194 16//208 55//208 53//209
f 36//210 35//211 57//212 58//210
f 35//211 27//189 56//191 57//212
f 5//213 53//214 54//215
f 67//216 72//216 98//8 10//7
f 83//217 88//152 78//151 73//218
f 87//219 77//5 75//4 86//219
f 60//220 59//220 61//220 62//220
f 54//215 61//221 59//221 5//213
f 26//222 32//186 23//185 22//11 25//10
f 67//223 42//223 37//223 72//223
f 38//176 71//179 70//168 39//167
f 9//181 11//180 69//224 64//224
f 84//225 83//225 82//225 81//225
f 85//226 88//226 87//226 86//226
f 82//171 83//217 73//218 66//172
f 16//24 14//148 15//25
f 53//209 5//193 17//194
f 54//156 56//155 62//227 61//227
f 17//194 6//145 14//148
usemtl Material._black
f 40//228 39//228 44//228 43//228
f 39//229 40//229 37//229 38//229
f 38//230 37//230 42//230 41//230
f 41//231 42//231 43//231 44//231
